%TF.GenerationSoftware,KiCad,Pcbnew,10.0.5*%
%TF.CreationDate,2026-09-30T23:19:41+05:30*%
%TF.ProjectId,Charger Board,43686172-6765-4722-9042-6f6172642e6b,rev?*%
%TF.SameCoordinates,Original*%
%TF.FileFunction,Copper,L2,Bot*%
%TF.FilePolarity,Positive*%
%FSLAX46Y46*%
G04 Gerber Fmt 4.6, Leading zero omitted, Abs format (unit mm)*
G04 Created by KiCad (PCBNEW 10.0.5) date 2026-09-30 23:19:41*
%MOMM*%
%LPD*%
G01*
G04 APERTURE LIST*
G04 Aperture macros list*
%AMRoundRect*
0 Rectangle with rounded corners*
0 $1 Rounding radius*
0 $2 $3 $4 $5 $6 $7 $8 $9 X,Y pos of 4 corners*
0 Add a 4 corners polygon primitive as box body*
4,1,4,$2,$3,$4,$5,$6,$7,$8,$9,$2,$3,0*
0 Add four circle primitives for the rounded corners*
1,1,$1+$1,$2,$3*
1,1,$1+$1,$4,$5*
1,1,$1+$1,$6,$7*
1,1,$1+$1,$8,$9*
0 Add four rect primitives between the rounded corners*
20,1,$1+$1,$2,$3,$4,$5,0*
20,1,$1+$1,$4,$5,$6,$7,0*
20,1,$1+$1,$6,$7,$8,$9,0*
20,1,$1+$1,$8,$9,$2,$3,0*%
G04 Aperture macros list end*
%TA.AperFunction,ComponentPad*%
%ADD10O,1.700000X1.100000*%
%TD*%
%TA.AperFunction,ComponentPad*%
%ADD11O,2.100000X1.100000*%
%TD*%
%TA.AperFunction,HeatsinkPad*%
%ADD12C,0.500000*%
%TD*%
%TA.AperFunction,HeatsinkPad*%
%ADD13R,1.900000X2.900000*%
%TD*%
%TA.AperFunction,ComponentPad*%
%ADD14RoundRect,0.250000X1.050000X-1.050000X1.050000X1.050000X-1.050000X1.050000X-1.050000X-1.050000X0*%
%TD*%
%TA.AperFunction,ComponentPad*%
%ADD15C,2.600000*%
%TD*%
%TA.AperFunction,ViaPad*%
%ADD16C,0.600000*%
%TD*%
%TA.AperFunction,Conductor*%
%ADD17C,0.200000*%
%TD*%
G04 APERTURE END LIST*
D10*
%TO.P,J1,S4,SHIELD_S4*%
%TO.N,GND*%
X135175000Y-99572500D03*
%TO.P,J1,S3,SHIELD_S3*%
X135175000Y-88332500D03*
D11*
%TO.P,J1,S2,SHIELD_S2*%
X131175000Y-99572500D03*
%TO.P,J1,S1,SHIELD_S1*%
X131175000Y-88332500D03*
%TD*%
D12*
%TO.P,U1,9,EPAD_9*%
%TO.N,GND*%
X145650000Y-95200000D03*
X145650000Y-94000000D03*
X145650000Y-92800000D03*
D13*
X144950000Y-94000000D03*
D12*
X144250000Y-95200000D03*
X144250000Y-94000000D03*
X144250000Y-92800000D03*
%TD*%
D14*
%TO.P,BT1,1,+_1*%
%TO.N,Net-(BT1-+)*%
X166872500Y-96400000D03*
D15*
%TO.P,BT1,2,-_2*%
%TO.N,GND*%
X166872500Y-91400000D03*
%TD*%
D16*
%TO.N,GND*%
X157300000Y-94900000D03*
X152600000Y-94600000D03*
X151600000Y-91000000D03*
X148900000Y-92000000D03*
%TO.N,VBUS*%
X152600000Y-90300000D03*
%TO.N,Net-(D2-A)*%
X153800000Y-90100000D03*
%TO.N,Net-(D1-K)*%
X143400000Y-98100000D03*
%TO.N,Net-(D2-K)*%
X151300000Y-98300000D03*
%TO.N,Net-(D2-A)*%
X160000000Y-93200000D03*
%TO.N,VBUS*%
X155700000Y-90200000D03*
%TO.N,Net-(D1-K)*%
X139800000Y-93900000D03*
%TO.N,Net-(D2-K)*%
X140100000Y-92700000D03*
%TO.N,Net-(BT1-+)*%
X140300000Y-91200000D03*
%TO.N,Net-(U1-PROG)*%
X148900000Y-91000000D03*
X146300000Y-90700000D03*
%TO.N,GND*%
X138500000Y-92300000D03*
X138400000Y-95500000D03*
%TD*%
%TO.N,GND*%
D17*
X157000000Y-94600000D02*
X157300000Y-94900000D01*
X152600000Y-94600000D02*
X157000000Y-94600000D01*
X148900000Y-92000000D02*
X150600000Y-92000000D01*
X150600000Y-92000000D02*
X151600000Y-91000000D01*
%TO.N,VBUS*%
X153400000Y-89500000D02*
X152600000Y-90300000D01*
X155000000Y-89500000D02*
X153400000Y-89500000D01*
X155700000Y-90200000D02*
X155000000Y-89500000D01*
%TO.N,Net-(D2-A)*%
X156900000Y-93200000D02*
X160000000Y-93200000D01*
X153800000Y-90100000D02*
X156900000Y-93200000D01*
%TO.N,Net-(D1-K)*%
X139200000Y-97300000D02*
X139200000Y-94500000D01*
X139200000Y-94500000D02*
X139800000Y-93900000D01*
X140000000Y-98100000D02*
X139200000Y-97300000D01*
X143400000Y-98100000D02*
X140000000Y-98100000D01*
%TO.N,Net-(D2-K)*%
X143400000Y-95450000D02*
X146250000Y-98300000D01*
X142700000Y-91600000D02*
X143400000Y-92300000D01*
X140748529Y-91600000D02*
X142700000Y-91600000D01*
X140100000Y-92248529D02*
X140748529Y-91600000D01*
X140100000Y-92700000D02*
X140100000Y-92248529D01*
X143400000Y-92300000D02*
X143400000Y-95450000D01*
X146250000Y-98300000D02*
X151300000Y-98300000D01*
%TO.N,Net-(BT1-+)*%
X150600000Y-96400000D02*
X166872500Y-96400000D01*
X144600000Y-90400000D02*
X150600000Y-96400000D01*
X140300000Y-90800000D02*
X140700000Y-90400000D01*
X140700000Y-90400000D02*
X144600000Y-90400000D01*
X140300000Y-91200000D02*
X140300000Y-90800000D01*
%TO.N,Net-(U1-PROG)*%
X148600000Y-90700000D02*
X148900000Y-91000000D01*
X146300000Y-90700000D02*
X148600000Y-90700000D01*
%TO.N,GND*%
X145650000Y-93300000D02*
X144950000Y-94000000D01*
X145650000Y-92800000D02*
X145650000Y-93300000D01*
X145650000Y-94000000D02*
X144950000Y-94000000D01*
X145650000Y-94700000D02*
X144950000Y-94000000D01*
X145650000Y-95200000D02*
X145650000Y-94700000D01*
X144250000Y-94700000D02*
X144950000Y-94000000D01*
X144250000Y-95200000D02*
X144250000Y-94700000D01*
X144250000Y-94000000D02*
X144950000Y-94000000D01*
X144250000Y-93300000D02*
X144950000Y-94000000D01*
X144250000Y-92800000D02*
X144250000Y-93300000D01*
X138400000Y-92400000D02*
X138500000Y-92300000D01*
X138400000Y-95500000D02*
X138400000Y-92400000D01*
%TD*%
%TA.AperFunction,Conductor*%
%TO.N,GND*%
G36*
X172042539Y-86020185D02*
G01*
X172088294Y-86072989D01*
X172099500Y-86124500D01*
X172099500Y-101575500D01*
X172079815Y-101642539D01*
X172027011Y-101688294D01*
X171975500Y-101699500D01*
X128624500Y-101699500D01*
X128557461Y-101679815D01*
X128511706Y-101627011D01*
X128500500Y-101575500D01*
X128500500Y-87292616D01*
X129424500Y-87292616D01*
X129424500Y-89372383D01*
X129448474Y-89430261D01*
X129455024Y-89446074D01*
X129511426Y-89502476D01*
X129585118Y-89533000D01*
X129664882Y-89533000D01*
X135200158Y-89533000D01*
X135267197Y-89552685D01*
X135312952Y-89605489D01*
X135322896Y-89674647D01*
X135293871Y-89738203D01*
X135255767Y-89767831D01*
X135243758Y-89773856D01*
X135243755Y-89773858D01*
X135176357Y-89841256D01*
X135133612Y-89926447D01*
X135133611Y-89926452D01*
X135132564Y-89933480D01*
X135124513Y-89962546D01*
X135124500Y-89962617D01*
X135124500Y-89978978D01*
X135123205Y-89996852D01*
X135120845Y-90013050D01*
X135120895Y-90014024D01*
X135124500Y-90042943D01*
X135124500Y-97862056D01*
X135120895Y-97890986D01*
X135120845Y-97891949D01*
X135123204Y-97908137D01*
X135124500Y-97926016D01*
X135124500Y-97942382D01*
X135124501Y-97942384D01*
X135124516Y-97942464D01*
X135132564Y-97971519D01*
X135133610Y-97978546D01*
X135133612Y-97978551D01*
X135176357Y-98063743D01*
X135243755Y-98131141D01*
X135243758Y-98131143D01*
X135255767Y-98137169D01*
X135306859Y-98184827D01*
X135324075Y-98252543D01*
X135301947Y-98318816D01*
X135247503Y-98362606D01*
X135200158Y-98372000D01*
X129585116Y-98372000D01*
X129511425Y-98402524D01*
X129455024Y-98458925D01*
X129424500Y-98532616D01*
X129424500Y-100612383D01*
X129428691Y-100622500D01*
X129455024Y-100686074D01*
X129511426Y-100742476D01*
X129585118Y-100773000D01*
X129585120Y-100773000D01*
X129664880Y-100773000D01*
X129664882Y-100773000D01*
X129738574Y-100742476D01*
X129794976Y-100686074D01*
X129825500Y-100612382D01*
X129825500Y-100499695D01*
X129845185Y-100432656D01*
X129897989Y-100386901D01*
X129967147Y-100376957D01*
X130018391Y-100396593D01*
X130177631Y-100502994D01*
X130177641Y-100502999D01*
X130368725Y-100582149D01*
X130368733Y-100582151D01*
X130571579Y-100622499D01*
X130571583Y-100622500D01*
X130925000Y-100622500D01*
X130925000Y-99872500D01*
X131425000Y-99872500D01*
X131425000Y-100622500D01*
X131778417Y-100622500D01*
X131778420Y-100622499D01*
X131981266Y-100582151D01*
X131981274Y-100582149D01*
X132172358Y-100502999D01*
X132172368Y-100502994D01*
X132344335Y-100388089D01*
X132344339Y-100388086D01*
X132490586Y-100241839D01*
X132490589Y-100241835D01*
X132605494Y-100069868D01*
X132605499Y-100069858D01*
X132684648Y-99878776D01*
X132684649Y-99878774D01*
X132695843Y-99822500D01*
X131841988Y-99822500D01*
X131859205Y-99812560D01*
X131915060Y-99756705D01*
X131954556Y-99688296D01*
X131975000Y-99611996D01*
X131975000Y-99533004D01*
X131954556Y-99456704D01*
X131915060Y-99388295D01*
X131859205Y-99332440D01*
X131841988Y-99322500D01*
X132695843Y-99322500D01*
X132684649Y-99266225D01*
X132684648Y-99266223D01*
X132605499Y-99075141D01*
X132605494Y-99075131D01*
X132532502Y-98965891D01*
X132511624Y-98899213D01*
X132530109Y-98831833D01*
X132582087Y-98785143D01*
X132635604Y-98773000D01*
X133914396Y-98773000D01*
X133981435Y-98792685D01*
X134027190Y-98845489D01*
X134037134Y-98914647D01*
X134017498Y-98965891D01*
X133944505Y-99075131D01*
X133944500Y-99075141D01*
X133865351Y-99266223D01*
X133865350Y-99266225D01*
X133854157Y-99322500D01*
X134708012Y-99322500D01*
X134690795Y-99332440D01*
X134634940Y-99388295D01*
X134595444Y-99456704D01*
X134575000Y-99533004D01*
X134575000Y-99611996D01*
X134595444Y-99688296D01*
X134634940Y-99756705D01*
X134690795Y-99812560D01*
X134708012Y-99822500D01*
X133854157Y-99822500D01*
X133865350Y-99878774D01*
X133865351Y-99878776D01*
X133944500Y-100069858D01*
X133944505Y-100069868D01*
X134059410Y-100241835D01*
X134059413Y-100241839D01*
X134205660Y-100388086D01*
X134205664Y-100388089D01*
X134377631Y-100502994D01*
X134377641Y-100502999D01*
X134568725Y-100582149D01*
X134568733Y-100582151D01*
X134771579Y-100622499D01*
X134771583Y-100622500D01*
X134925000Y-100622500D01*
X134925000Y-99872500D01*
X135425000Y-99872500D01*
X135425000Y-100622500D01*
X135578417Y-100622500D01*
X135578420Y-100622499D01*
X135781266Y-100582151D01*
X135781274Y-100582149D01*
X135972358Y-100502999D01*
X135972368Y-100502994D01*
X136144335Y-100388089D01*
X136144339Y-100388086D01*
X136290586Y-100241839D01*
X136290589Y-100241835D01*
X136405494Y-100069868D01*
X136405499Y-100069858D01*
X136484648Y-99878776D01*
X136484649Y-99878774D01*
X136495843Y-99822500D01*
X135641988Y-99822500D01*
X135659205Y-99812560D01*
X135715060Y-99756705D01*
X135754556Y-99688296D01*
X135775000Y-99611996D01*
X135775000Y-99533004D01*
X135754556Y-99456704D01*
X135715060Y-99388295D01*
X135659205Y-99332440D01*
X135641988Y-99322500D01*
X136495843Y-99322500D01*
X136484649Y-99266225D01*
X136484648Y-99266223D01*
X136405499Y-99075141D01*
X136405494Y-99075131D01*
X136290589Y-98903164D01*
X136290586Y-98903160D01*
X136144339Y-98756913D01*
X136144335Y-98756910D01*
X135972368Y-98642005D01*
X135972358Y-98642000D01*
X135867560Y-98598591D01*
X135813157Y-98554750D01*
X135791092Y-98488455D01*
X135795351Y-98451517D01*
X135825664Y-98339963D01*
X135826219Y-98208421D01*
X135792800Y-98081194D01*
X135727671Y-97966906D01*
X135635248Y-97873304D01*
X135635247Y-97873303D01*
X135635246Y-97873302D01*
X135586745Y-97844843D01*
X135538887Y-97793937D01*
X135525500Y-97737895D01*
X135525500Y-97379054D01*
X138599498Y-97379054D01*
X138640423Y-97531785D01*
X138669358Y-97581900D01*
X138669359Y-97581904D01*
X138669360Y-97581904D01*
X138716284Y-97663181D01*
X138719479Y-97668714D01*
X138719481Y-97668717D01*
X138838349Y-97787585D01*
X138838355Y-97787590D01*
X139515139Y-98464374D01*
X139515149Y-98464385D01*
X139519479Y-98468715D01*
X139519480Y-98468716D01*
X139631284Y-98580520D01*
X139662585Y-98598591D01*
X139718095Y-98630639D01*
X139718097Y-98630641D01*
X139756151Y-98652611D01*
X139768215Y-98659577D01*
X139920943Y-98700501D01*
X139920946Y-98700501D01*
X140086653Y-98700501D01*
X140086669Y-98700500D01*
X142820234Y-98700500D01*
X142887273Y-98720185D01*
X142889125Y-98721398D01*
X143020814Y-98809390D01*
X143020827Y-98809397D01*
X143141972Y-98859576D01*
X143166503Y-98869737D01*
X143314688Y-98899213D01*
X143321153Y-98900499D01*
X143321156Y-98900500D01*
X143321158Y-98900500D01*
X143478844Y-98900500D01*
X143478845Y-98900499D01*
X143633497Y-98869737D01*
X143779179Y-98809394D01*
X143910289Y-98721789D01*
X144021789Y-98610289D01*
X144109394Y-98479179D01*
X144169737Y-98333497D01*
X144200500Y-98178842D01*
X144200500Y-98021158D01*
X144200500Y-98021155D01*
X144200499Y-98021153D01*
X144190626Y-97971519D01*
X144169737Y-97866503D01*
X144145880Y-97808906D01*
X144109397Y-97720827D01*
X144109390Y-97720814D01*
X144021789Y-97589711D01*
X144021786Y-97589707D01*
X143910292Y-97478213D01*
X143910288Y-97478210D01*
X143779185Y-97390609D01*
X143779172Y-97390602D01*
X143633501Y-97330264D01*
X143633489Y-97330261D01*
X143478845Y-97299500D01*
X143478842Y-97299500D01*
X143321158Y-97299500D01*
X143321155Y-97299500D01*
X143166510Y-97330261D01*
X143166498Y-97330264D01*
X143020827Y-97390602D01*
X143020814Y-97390609D01*
X142889125Y-97478602D01*
X142822447Y-97499480D01*
X142820234Y-97499500D01*
X140300097Y-97499500D01*
X140233058Y-97479815D01*
X140212416Y-97463181D01*
X139836819Y-97087584D01*
X139803334Y-97026261D01*
X139800500Y-96999903D01*
X139800500Y-94817847D01*
X139820185Y-94750808D01*
X139872989Y-94705053D01*
X139900309Y-94696230D01*
X139916291Y-94693050D01*
X140033497Y-94669737D01*
X140179179Y-94609394D01*
X140310289Y-94521789D01*
X140421789Y-94410289D01*
X140509394Y-94279179D01*
X140569737Y-94133497D01*
X140600500Y-93978842D01*
X140600500Y-93821158D01*
X140600500Y-93821155D01*
X140600499Y-93821153D01*
X140582495Y-93730641D01*
X140569737Y-93666503D01*
X140533569Y-93579185D01*
X140507063Y-93515192D01*
X140508773Y-93514483D01*
X140496293Y-93454564D01*
X140521288Y-93389318D01*
X140551000Y-93361404D01*
X140610289Y-93321789D01*
X140721789Y-93210289D01*
X140809394Y-93079179D01*
X140869737Y-92933497D01*
X140900500Y-92778842D01*
X140900500Y-92621158D01*
X140900500Y-92621155D01*
X140900499Y-92621153D01*
X140891068Y-92573739D01*
X140869737Y-92466503D01*
X140860884Y-92445132D01*
X140853416Y-92375664D01*
X140884691Y-92313184D01*
X140887766Y-92309998D01*
X140960948Y-92236818D01*
X141022272Y-92203333D01*
X141048628Y-92200500D01*
X142399903Y-92200500D01*
X142466942Y-92220185D01*
X142487584Y-92236819D01*
X142763181Y-92512416D01*
X142796666Y-92573739D01*
X142799500Y-92600097D01*
X142799500Y-95363330D01*
X142799499Y-95363348D01*
X142799499Y-95529054D01*
X142799498Y-95529054D01*
X142840423Y-95681785D01*
X142869358Y-95731900D01*
X142869359Y-95731904D01*
X142869360Y-95731904D01*
X142887417Y-95763181D01*
X142919479Y-95818714D01*
X142919481Y-95818717D01*
X143038349Y-95937585D01*
X143038354Y-95937589D01*
X145881284Y-98780520D01*
X145881286Y-98780521D01*
X145881290Y-98780524D01*
X146018209Y-98859573D01*
X146018216Y-98859577D01*
X146170943Y-98900501D01*
X146170945Y-98900501D01*
X146336654Y-98900501D01*
X146336670Y-98900500D01*
X150720234Y-98900500D01*
X150787273Y-98920185D01*
X150789125Y-98921398D01*
X150920814Y-99009390D01*
X150920827Y-99009397D01*
X151066498Y-99069735D01*
X151066503Y-99069737D01*
X151221153Y-99100499D01*
X151221156Y-99100500D01*
X151221158Y-99100500D01*
X151378844Y-99100500D01*
X151378845Y-99100499D01*
X151533497Y-99069737D01*
X151679179Y-99009394D01*
X151810289Y-98921789D01*
X151921789Y-98810289D01*
X152009394Y-98679179D01*
X152069737Y-98533497D01*
X152100500Y-98378842D01*
X152100500Y-98221158D01*
X152100500Y-98221155D01*
X152100499Y-98221153D01*
X152093273Y-98184827D01*
X152069737Y-98066503D01*
X152050955Y-98021158D01*
X152009397Y-97920827D01*
X152009390Y-97920814D01*
X151921789Y-97789711D01*
X151921786Y-97789707D01*
X151810292Y-97678213D01*
X151810288Y-97678210D01*
X151679185Y-97590609D01*
X151679172Y-97590602D01*
X151533501Y-97530264D01*
X151533489Y-97530261D01*
X151378845Y-97499500D01*
X151378842Y-97499500D01*
X151221158Y-97499500D01*
X151221155Y-97499500D01*
X151066510Y-97530261D01*
X151066498Y-97530264D01*
X150920827Y-97590602D01*
X150920814Y-97590609D01*
X150789125Y-97678602D01*
X150722447Y-97699480D01*
X150720234Y-97699500D01*
X146550098Y-97699500D01*
X146483059Y-97679815D01*
X146462417Y-97663181D01*
X144676813Y-95877577D01*
X145325975Y-95877577D01*
X145431236Y-95921178D01*
X145431240Y-95921179D01*
X145576126Y-95949999D01*
X145576129Y-95950000D01*
X145723871Y-95950000D01*
X145723873Y-95949999D01*
X145868760Y-95921179D01*
X145868775Y-95921175D01*
X145974024Y-95877578D01*
X145974024Y-95877577D01*
X145650001Y-95553554D01*
X145650000Y-95553554D01*
X145325975Y-95877577D01*
X144676813Y-95877577D01*
X144036819Y-95237583D01*
X144024339Y-95214729D01*
X144011706Y-95200149D01*
X144008611Y-95185925D01*
X144005436Y-95180109D01*
X144150000Y-95180109D01*
X144150000Y-95219891D01*
X144165224Y-95256645D01*
X144193355Y-95284776D01*
X144230109Y-95300000D01*
X144269891Y-95300000D01*
X144306645Y-95284776D01*
X144334776Y-95256645D01*
X144350000Y-95219891D01*
X144350000Y-95199999D01*
X144603554Y-95199999D01*
X144603554Y-95200001D01*
X144927929Y-95524376D01*
X144972069Y-95524376D01*
X145296446Y-95200000D01*
X145276555Y-95180109D01*
X145550000Y-95180109D01*
X145550000Y-95219891D01*
X145565224Y-95256645D01*
X145593355Y-95284776D01*
X145630109Y-95300000D01*
X145669891Y-95300000D01*
X145706645Y-95284776D01*
X145734776Y-95256645D01*
X145750000Y-95219891D01*
X145750000Y-95199999D01*
X146003554Y-95199999D01*
X146003554Y-95200001D01*
X146327577Y-95524024D01*
X146327578Y-95524024D01*
X146371175Y-95418775D01*
X146371179Y-95418760D01*
X146399999Y-95273873D01*
X146400000Y-95273871D01*
X146400000Y-95126128D01*
X146399999Y-95126126D01*
X146371179Y-94981240D01*
X146371178Y-94981236D01*
X146327577Y-94875975D01*
X146003554Y-95199999D01*
X145750000Y-95199999D01*
X145750000Y-95180109D01*
X145734776Y-95143355D01*
X145706645Y-95115224D01*
X145669891Y-95100000D01*
X145630109Y-95100000D01*
X145593355Y-95115224D01*
X145565224Y-95143355D01*
X145550000Y-95180109D01*
X145276555Y-95180109D01*
X144972068Y-94875622D01*
X144927930Y-94875622D01*
X144603554Y-95199999D01*
X144350000Y-95199999D01*
X144350000Y-95180109D01*
X144334776Y-95143355D01*
X144306645Y-95115224D01*
X144269891Y-95100000D01*
X144230109Y-95100000D01*
X144193355Y-95115224D01*
X144165224Y-95143355D01*
X144150000Y-95180109D01*
X144005436Y-95180109D01*
X144003334Y-95176260D01*
X144000500Y-95149902D01*
X144000500Y-94896308D01*
X144020185Y-94829269D01*
X144072989Y-94783514D01*
X144142147Y-94773570D01*
X144205703Y-94802595D01*
X144212181Y-94808627D01*
X144250000Y-94846446D01*
X144496446Y-94600000D01*
X145403554Y-94600000D01*
X145650000Y-94846446D01*
X145896446Y-94600000D01*
X145650000Y-94353554D01*
X145403554Y-94600000D01*
X144496446Y-94600000D01*
X144250000Y-94353554D01*
X144212181Y-94391373D01*
X144150858Y-94424858D01*
X144081166Y-94419874D01*
X144025233Y-94378002D01*
X144000816Y-94312538D01*
X144000500Y-94303692D01*
X144000500Y-93980109D01*
X144150000Y-93980109D01*
X144150000Y-94019891D01*
X144165224Y-94056645D01*
X144193355Y-94084776D01*
X144230109Y-94100000D01*
X144269891Y-94100000D01*
X144306645Y-94084776D01*
X144334776Y-94056645D01*
X144350000Y-94019891D01*
X144350000Y-93999999D01*
X144603554Y-93999999D01*
X144603554Y-94000001D01*
X144927929Y-94324376D01*
X144972069Y-94324376D01*
X145296446Y-94000000D01*
X145276555Y-93980109D01*
X145550000Y-93980109D01*
X145550000Y-94019891D01*
X145565224Y-94056645D01*
X145593355Y-94084776D01*
X145630109Y-94100000D01*
X145669891Y-94100000D01*
X145706645Y-94084776D01*
X145734776Y-94056645D01*
X145750000Y-94019891D01*
X145750000Y-93999999D01*
X146003554Y-93999999D01*
X146003554Y-94000001D01*
X146327577Y-94324024D01*
X146327578Y-94324024D01*
X146371175Y-94218775D01*
X146371179Y-94218760D01*
X146399999Y-94073873D01*
X146400000Y-94073871D01*
X146400000Y-93926128D01*
X146399999Y-93926126D01*
X146371179Y-93781240D01*
X146371178Y-93781236D01*
X146327577Y-93675975D01*
X146003554Y-93999999D01*
X145750000Y-93999999D01*
X145750000Y-93980109D01*
X145734776Y-93943355D01*
X145706645Y-93915224D01*
X145669891Y-93900000D01*
X145630109Y-93900000D01*
X145593355Y-93915224D01*
X145565224Y-93943355D01*
X145550000Y-93980109D01*
X145276555Y-93980109D01*
X144972068Y-93675622D01*
X144927930Y-93675622D01*
X144603554Y-93999999D01*
X144350000Y-93999999D01*
X144350000Y-93980109D01*
X144334776Y-93943355D01*
X144306645Y-93915224D01*
X144269891Y-93900000D01*
X144230109Y-93900000D01*
X144193355Y-93915224D01*
X144165224Y-93943355D01*
X144150000Y-93980109D01*
X144000500Y-93980109D01*
X144000500Y-93696308D01*
X144020185Y-93629269D01*
X144072989Y-93583514D01*
X144142147Y-93573570D01*
X144205703Y-93602595D01*
X144212181Y-93608627D01*
X144250000Y-93646446D01*
X144496446Y-93400000D01*
X145403554Y-93400000D01*
X145650000Y-93646446D01*
X145896446Y-93400000D01*
X145650000Y-93153554D01*
X145403554Y-93400000D01*
X144496446Y-93400000D01*
X144250000Y-93153554D01*
X144212181Y-93191373D01*
X144150858Y-93224858D01*
X144081166Y-93219874D01*
X144025233Y-93178002D01*
X144000816Y-93112538D01*
X144000500Y-93103692D01*
X144000500Y-92780109D01*
X144150000Y-92780109D01*
X144150000Y-92819891D01*
X144165224Y-92856645D01*
X144193355Y-92884776D01*
X144230109Y-92900000D01*
X144269891Y-92900000D01*
X144306645Y-92884776D01*
X144334776Y-92856645D01*
X144350000Y-92819891D01*
X144350000Y-92799999D01*
X144603554Y-92799999D01*
X144603554Y-92800001D01*
X144927929Y-93124376D01*
X144972069Y-93124376D01*
X145296446Y-92800000D01*
X145276555Y-92780109D01*
X145550000Y-92780109D01*
X145550000Y-92819891D01*
X145565224Y-92856645D01*
X145593355Y-92884776D01*
X145630109Y-92900000D01*
X145669891Y-92900000D01*
X145706645Y-92884776D01*
X145734776Y-92856645D01*
X145750000Y-92819891D01*
X145750000Y-92780109D01*
X145734776Y-92743355D01*
X145706645Y-92715224D01*
X145669891Y-92700000D01*
X145630109Y-92700000D01*
X145593355Y-92715224D01*
X145565224Y-92743355D01*
X145550000Y-92780109D01*
X145276555Y-92780109D01*
X144972068Y-92475622D01*
X144927930Y-92475622D01*
X144603554Y-92799999D01*
X144350000Y-92799999D01*
X144350000Y-92780109D01*
X144334776Y-92743355D01*
X144306645Y-92715224D01*
X144269891Y-92700000D01*
X144230109Y-92700000D01*
X144193355Y-92715224D01*
X144165224Y-92743355D01*
X144150000Y-92780109D01*
X144000500Y-92780109D01*
X144000500Y-92747308D01*
X144020185Y-92680269D01*
X144036819Y-92659627D01*
X144574024Y-92122421D01*
X144468767Y-92078822D01*
X144468759Y-92078820D01*
X144323872Y-92050000D01*
X144176131Y-92050000D01*
X144059599Y-92073179D01*
X143990008Y-92066951D01*
X143934831Y-92024087D01*
X143928026Y-92013569D01*
X143880520Y-91931284D01*
X143768716Y-91819480D01*
X143764385Y-91815149D01*
X143764374Y-91815139D01*
X143187590Y-91238355D01*
X143187588Y-91238352D01*
X143161417Y-91212181D01*
X143127932Y-91150858D01*
X143132916Y-91081166D01*
X143174788Y-91025233D01*
X143240252Y-91000816D01*
X143249098Y-91000500D01*
X144299903Y-91000500D01*
X144366942Y-91020185D01*
X144387584Y-91036819D01*
X145303532Y-91952767D01*
X145337017Y-92014090D01*
X145337468Y-92064639D01*
X145325974Y-92122421D01*
X145826777Y-92623223D01*
X146327576Y-93124023D01*
X146385358Y-93112530D01*
X146454949Y-93118757D01*
X146497231Y-93146466D01*
X150115139Y-96764374D01*
X150115149Y-96764385D01*
X150119479Y-96768715D01*
X150119480Y-96768716D01*
X150231284Y-96880520D01*
X150231286Y-96880521D01*
X150231290Y-96880524D01*
X150368209Y-96959573D01*
X150368216Y-96959577D01*
X150480019Y-96989534D01*
X150520942Y-97000500D01*
X150520943Y-97000500D01*
X164948001Y-97000500D01*
X165015040Y-97020185D01*
X165060795Y-97072989D01*
X165072001Y-97124500D01*
X165072001Y-97500018D01*
X165082500Y-97602796D01*
X165082501Y-97602799D01*
X165137685Y-97769331D01*
X165137687Y-97769336D01*
X165152861Y-97793937D01*
X165229788Y-97918656D01*
X165353844Y-98042712D01*
X165503166Y-98134814D01*
X165669703Y-98189999D01*
X165772491Y-98200500D01*
X167972508Y-98200499D01*
X168075297Y-98189999D01*
X168241834Y-98134814D01*
X168391156Y-98042712D01*
X168515212Y-97918656D01*
X168607314Y-97769334D01*
X168662499Y-97602797D01*
X168673000Y-97500009D01*
X168672999Y-95299992D01*
X168662499Y-95197203D01*
X168607314Y-95030666D01*
X168515212Y-94881344D01*
X168391156Y-94757288D01*
X168249214Y-94669738D01*
X168241836Y-94665187D01*
X168241831Y-94665185D01*
X168240362Y-94664698D01*
X168075297Y-94610001D01*
X168075295Y-94610000D01*
X167972510Y-94599500D01*
X165772498Y-94599500D01*
X165772481Y-94599501D01*
X165669703Y-94610000D01*
X165669700Y-94610001D01*
X165503168Y-94665185D01*
X165503163Y-94665187D01*
X165353842Y-94757289D01*
X165229789Y-94881342D01*
X165137687Y-95030663D01*
X165137686Y-95030666D01*
X165082501Y-95197203D01*
X165082501Y-95197204D01*
X165082500Y-95197204D01*
X165072000Y-95299983D01*
X165072000Y-95675500D01*
X165052315Y-95742539D01*
X164999511Y-95788294D01*
X164948000Y-95799500D01*
X150900097Y-95799500D01*
X150833058Y-95779815D01*
X150812416Y-95763181D01*
X146653677Y-91604442D01*
X146620192Y-91543119D01*
X146625176Y-91473427D01*
X146667048Y-91417494D01*
X146674216Y-91412932D01*
X146674114Y-91412779D01*
X146810875Y-91321398D01*
X146877553Y-91300520D01*
X146879766Y-91300500D01*
X148075162Y-91300500D01*
X148142201Y-91320185D01*
X148187956Y-91372989D01*
X148189715Y-91377029D01*
X148190606Y-91379179D01*
X148190607Y-91379180D01*
X148190609Y-91379185D01*
X148278210Y-91510288D01*
X148278213Y-91510292D01*
X148389707Y-91621786D01*
X148389711Y-91621789D01*
X148520814Y-91709390D01*
X148520827Y-91709397D01*
X148662326Y-91768007D01*
X148666503Y-91769737D01*
X148821153Y-91800499D01*
X148821156Y-91800500D01*
X148821158Y-91800500D01*
X148978844Y-91800500D01*
X148978845Y-91800499D01*
X149133497Y-91769737D01*
X149279179Y-91709394D01*
X149410289Y-91621789D01*
X149521789Y-91510289D01*
X149609394Y-91379179D01*
X149610276Y-91377051D01*
X149627287Y-91335981D01*
X149669737Y-91233497D01*
X149700500Y-91078842D01*
X149700500Y-90921158D01*
X149700500Y-90921155D01*
X149700499Y-90921153D01*
X149690271Y-90869735D01*
X149669737Y-90766503D01*
X149646452Y-90710288D01*
X149609397Y-90620827D01*
X149609390Y-90620814D01*
X149521789Y-90489711D01*
X149521786Y-90489707D01*
X149410292Y-90378213D01*
X149410288Y-90378210D01*
X149320429Y-90318168D01*
X149279185Y-90290609D01*
X149279172Y-90290602D01*
X149133501Y-90230264D01*
X149133489Y-90230261D01*
X149087701Y-90221153D01*
X151799500Y-90221153D01*
X151799500Y-90378846D01*
X151830261Y-90533489D01*
X151830264Y-90533501D01*
X151890602Y-90679172D01*
X151890609Y-90679185D01*
X151978210Y-90810288D01*
X151978213Y-90810292D01*
X152089707Y-90921786D01*
X152089711Y-90921789D01*
X152220814Y-91009390D01*
X152220827Y-91009397D01*
X152364038Y-91068716D01*
X152366503Y-91069737D01*
X152478979Y-91092110D01*
X152521153Y-91100499D01*
X152521156Y-91100500D01*
X152521158Y-91100500D01*
X152678844Y-91100500D01*
X152678845Y-91100499D01*
X152833497Y-91069737D01*
X152979179Y-91009394D01*
X153110289Y-90921789D01*
X153162343Y-90869735D01*
X153226097Y-90805982D01*
X153227022Y-90806907D01*
X153279187Y-90771367D01*
X153349032Y-90769489D01*
X153386198Y-90786260D01*
X153417099Y-90806907D01*
X153420821Y-90809394D01*
X153420823Y-90809395D01*
X153420827Y-90809397D01*
X153566498Y-90869735D01*
X153566503Y-90869737D01*
X153631147Y-90882595D01*
X153721849Y-90900638D01*
X153783760Y-90933023D01*
X153785339Y-90934574D01*
X156415139Y-93564374D01*
X156415149Y-93564385D01*
X156419479Y-93568715D01*
X156419480Y-93568716D01*
X156531284Y-93680520D01*
X156582845Y-93710288D01*
X156618095Y-93730639D01*
X156618097Y-93730641D01*
X156656151Y-93752611D01*
X156668215Y-93759577D01*
X156820943Y-93800501D01*
X156820946Y-93800501D01*
X156986653Y-93800501D01*
X156986669Y-93800500D01*
X159420234Y-93800500D01*
X159487273Y-93820185D01*
X159489125Y-93821398D01*
X159620814Y-93909390D01*
X159620827Y-93909397D01*
X159766498Y-93969735D01*
X159766503Y-93969737D01*
X159918639Y-93999999D01*
X159921153Y-94000499D01*
X159921156Y-94000500D01*
X159921158Y-94000500D01*
X160078844Y-94000500D01*
X160078845Y-94000499D01*
X160233497Y-93969737D01*
X160379179Y-93909394D01*
X160510289Y-93821789D01*
X160621789Y-93710289D01*
X160709394Y-93579179D01*
X160769737Y-93433497D01*
X160800500Y-93278842D01*
X160800500Y-93121158D01*
X160800500Y-93121155D01*
X160800499Y-93121153D01*
X160769738Y-92966510D01*
X160769737Y-92966503D01*
X160716211Y-92837279D01*
X160716020Y-92836817D01*
X160716004Y-92836779D01*
X160715678Y-92835992D01*
X160709394Y-92820821D01*
X160709392Y-92820818D01*
X160709390Y-92820814D01*
X160621789Y-92689711D01*
X160621786Y-92689707D01*
X160510292Y-92578213D01*
X160510288Y-92578210D01*
X160379185Y-92490609D01*
X160379172Y-92490602D01*
X160233501Y-92430264D01*
X160233489Y-92430261D01*
X160078845Y-92399500D01*
X160078842Y-92399500D01*
X159921158Y-92399500D01*
X159921155Y-92399500D01*
X159766510Y-92430261D01*
X159766498Y-92430264D01*
X159620827Y-92490602D01*
X159620814Y-92490609D01*
X159489125Y-92578602D01*
X159422447Y-92599480D01*
X159420234Y-92599500D01*
X157200097Y-92599500D01*
X157133058Y-92579815D01*
X157112416Y-92563181D01*
X155831249Y-91282014D01*
X165072500Y-91282014D01*
X165072500Y-91517985D01*
X165103299Y-91751914D01*
X165164370Y-91979837D01*
X165254660Y-92197819D01*
X165254665Y-92197828D01*
X165372644Y-92402171D01*
X165372645Y-92402172D01*
X165435221Y-92483723D01*
X166271458Y-91647487D01*
X166296478Y-91707890D01*
X166367612Y-91814351D01*
X166458149Y-91904888D01*
X166564610Y-91976022D01*
X166625011Y-92001041D01*
X165788775Y-92837277D01*
X165870327Y-92899854D01*
X165870328Y-92899855D01*
X166074671Y-93017834D01*
X166074680Y-93017839D01*
X166292663Y-93108129D01*
X166292661Y-93108129D01*
X166520585Y-93169200D01*
X166754514Y-93199999D01*
X166754529Y-93200000D01*
X166990471Y-93200000D01*
X166990485Y-93199999D01*
X167224414Y-93169200D01*
X167452337Y-93108129D01*
X167670319Y-93017839D01*
X167670328Y-93017834D01*
X167874681Y-92899850D01*
X167956223Y-92837279D01*
X167956223Y-92837276D01*
X167119987Y-92001041D01*
X167180390Y-91976022D01*
X167286851Y-91904888D01*
X167377388Y-91814351D01*
X167448522Y-91707890D01*
X167473541Y-91647488D01*
X168309776Y-92483723D01*
X168309779Y-92483723D01*
X168372350Y-92402181D01*
X168490334Y-92197828D01*
X168490339Y-92197819D01*
X168580629Y-91979837D01*
X168641700Y-91751914D01*
X168672499Y-91517985D01*
X168672500Y-91517971D01*
X168672500Y-91282028D01*
X168672499Y-91282014D01*
X168641700Y-91048085D01*
X168580629Y-90820162D01*
X168490339Y-90602180D01*
X168490334Y-90602171D01*
X168372355Y-90397828D01*
X168372354Y-90397827D01*
X168309777Y-90316275D01*
X167473541Y-91152511D01*
X167448522Y-91092110D01*
X167377388Y-90985649D01*
X167286851Y-90895112D01*
X167180390Y-90823978D01*
X167119988Y-90798958D01*
X167956223Y-89962721D01*
X167874672Y-89900145D01*
X167874671Y-89900144D01*
X167670328Y-89782165D01*
X167670319Y-89782160D01*
X167452336Y-89691870D01*
X167452338Y-89691870D01*
X167224414Y-89630799D01*
X166990485Y-89600000D01*
X166754514Y-89600000D01*
X166520585Y-89630799D01*
X166292662Y-89691870D01*
X166074680Y-89782160D01*
X166074671Y-89782165D01*
X165870328Y-89900144D01*
X165870318Y-89900150D01*
X165788775Y-89962720D01*
X165788775Y-89962721D01*
X166625012Y-90798958D01*
X166564610Y-90823978D01*
X166458149Y-90895112D01*
X166367612Y-90985649D01*
X166296478Y-91092110D01*
X166271458Y-91152511D01*
X165435221Y-90316275D01*
X165435220Y-90316275D01*
X165372650Y-90397818D01*
X165372644Y-90397828D01*
X165254665Y-90602171D01*
X165254660Y-90602180D01*
X165164370Y-90820162D01*
X165103299Y-91048085D01*
X165072500Y-91282014D01*
X155831249Y-91282014D01*
X155751786Y-91202551D01*
X155718301Y-91141228D01*
X155723285Y-91071536D01*
X155765157Y-91015603D01*
X155815276Y-90993253D01*
X155847559Y-90986831D01*
X155933497Y-90969737D01*
X156079179Y-90909394D01*
X156210289Y-90821789D01*
X156321789Y-90710289D01*
X156409394Y-90579179D01*
X156469737Y-90433497D01*
X156500500Y-90278842D01*
X156500500Y-90121158D01*
X156500500Y-90121155D01*
X156500499Y-90121153D01*
X156483336Y-90034865D01*
X156469738Y-89966508D01*
X156469737Y-89966507D01*
X156469737Y-89966503D01*
X156469735Y-89966498D01*
X156409397Y-89820827D01*
X156409390Y-89820814D01*
X156321789Y-89689711D01*
X156321786Y-89689707D01*
X156210292Y-89578213D01*
X156210288Y-89578210D01*
X156079185Y-89490609D01*
X156079172Y-89490602D01*
X155933501Y-89430264D01*
X155933491Y-89430261D01*
X155778149Y-89399361D01*
X155716238Y-89366976D01*
X155714660Y-89365425D01*
X155487590Y-89138355D01*
X155487588Y-89138352D01*
X155368717Y-89019481D01*
X155368716Y-89019480D01*
X155281904Y-88969360D01*
X155281904Y-88969359D01*
X155281900Y-88969358D01*
X155231785Y-88940423D01*
X155079057Y-88899499D01*
X154920943Y-88899499D01*
X154913347Y-88899499D01*
X154913331Y-88899500D01*
X153486669Y-88899500D01*
X153486653Y-88899499D01*
X153479057Y-88899499D01*
X153320943Y-88899499D01*
X153213587Y-88928265D01*
X153168210Y-88940424D01*
X153168209Y-88940425D01*
X153118096Y-88969359D01*
X153118095Y-88969360D01*
X153081734Y-88990353D01*
X153031285Y-89019479D01*
X153031282Y-89019481D01*
X152585339Y-89465425D01*
X152524016Y-89498910D01*
X152521850Y-89499361D01*
X152366508Y-89530261D01*
X152366498Y-89530264D01*
X152220827Y-89590602D01*
X152220814Y-89590609D01*
X152089711Y-89678210D01*
X152089707Y-89678213D01*
X151978213Y-89789707D01*
X151978210Y-89789711D01*
X151890609Y-89920814D01*
X151890602Y-89920827D01*
X151830264Y-90066498D01*
X151830261Y-90066510D01*
X151799500Y-90221153D01*
X149087701Y-90221153D01*
X148978845Y-90199500D01*
X148978842Y-90199500D01*
X148967335Y-90199500D01*
X148905336Y-90182888D01*
X148879922Y-90168215D01*
X148831785Y-90140423D01*
X148679057Y-90099499D01*
X148520943Y-90099499D01*
X148513347Y-90099499D01*
X148513331Y-90099500D01*
X146879766Y-90099500D01*
X146812727Y-90079815D01*
X146810875Y-90078602D01*
X146679185Y-89990609D01*
X146679172Y-89990602D01*
X146533501Y-89930264D01*
X146533489Y-89930261D01*
X146378845Y-89899500D01*
X146378842Y-89899500D01*
X146221158Y-89899500D01*
X146221155Y-89899500D01*
X146066510Y-89930261D01*
X146066498Y-89930264D01*
X145920827Y-89990602D01*
X145920814Y-89990609D01*
X145789711Y-90078210D01*
X145789707Y-90078213D01*
X145678213Y-90189707D01*
X145678210Y-90189711D01*
X145587221Y-90325886D01*
X145585263Y-90324578D01*
X145543573Y-90366973D01*
X145475426Y-90382395D01*
X145409760Y-90358526D01*
X145395557Y-90346322D01*
X145087590Y-90038355D01*
X145087588Y-90038352D01*
X144968717Y-89919481D01*
X144968716Y-89919480D01*
X144862731Y-89858290D01*
X144862730Y-89858289D01*
X144831783Y-89840422D01*
X144769785Y-89823810D01*
X144679057Y-89799499D01*
X144520943Y-89799499D01*
X144513347Y-89799499D01*
X144513331Y-89799500D01*
X140620940Y-89799500D01*
X140580019Y-89810464D01*
X140580019Y-89810465D01*
X140542751Y-89820451D01*
X140468214Y-89840423D01*
X140468209Y-89840426D01*
X140331290Y-89919475D01*
X140331282Y-89919481D01*
X139819481Y-90431282D01*
X139819480Y-90431284D01*
X139775115Y-90508127D01*
X139762416Y-90530121D01*
X139740422Y-90568215D01*
X139740422Y-90568216D01*
X139727321Y-90617108D01*
X139695230Y-90672691D01*
X139678213Y-90689708D01*
X139678208Y-90689714D01*
X139590609Y-90820814D01*
X139590602Y-90820827D01*
X139530264Y-90966498D01*
X139530261Y-90966510D01*
X139499500Y-91121153D01*
X139499500Y-91278846D01*
X139530261Y-91433489D01*
X139530264Y-91433501D01*
X139590602Y-91579172D01*
X139590609Y-91579184D01*
X139666051Y-91692090D01*
X139686929Y-91758767D01*
X139668445Y-91826147D01*
X139650631Y-91848661D01*
X139619481Y-91879811D01*
X139619480Y-91879813D01*
X139577361Y-91952767D01*
X139569361Y-91966623D01*
X139569359Y-91966625D01*
X139540425Y-92016738D01*
X139540424Y-92016740D01*
X139540423Y-92016744D01*
X139508480Y-92135949D01*
X139480779Y-92183938D01*
X139482076Y-92185002D01*
X139478210Y-92189712D01*
X139390609Y-92320815D01*
X139390602Y-92320827D01*
X139330264Y-92466498D01*
X139330261Y-92466510D01*
X139299500Y-92621153D01*
X139299500Y-92778846D01*
X139330261Y-92933489D01*
X139330264Y-92933501D01*
X139392937Y-93084807D01*
X139391231Y-93085513D01*
X139403704Y-93145465D01*
X139378693Y-93210704D01*
X139348996Y-93238597D01*
X139289711Y-93278210D01*
X139289707Y-93278213D01*
X139178213Y-93389707D01*
X139178210Y-93389711D01*
X139090609Y-93520814D01*
X139090602Y-93520827D01*
X139030264Y-93666498D01*
X139030261Y-93666508D01*
X138999362Y-93821848D01*
X138966977Y-93883759D01*
X138965427Y-93885337D01*
X138907409Y-93943355D01*
X138831286Y-94019478D01*
X138719481Y-94131282D01*
X138719480Y-94131284D01*
X138675115Y-94208127D01*
X138640423Y-94268215D01*
X138599499Y-94420943D01*
X138599499Y-94420945D01*
X138599499Y-94589046D01*
X138599500Y-94589059D01*
X138599500Y-97213330D01*
X138599499Y-97213348D01*
X138599499Y-97379054D01*
X138599498Y-97379054D01*
X135525500Y-97379054D01*
X135525500Y-90167103D01*
X135545185Y-90100064D01*
X135586744Y-90060156D01*
X135635248Y-90031696D01*
X135727671Y-89938094D01*
X135792800Y-89823806D01*
X135826219Y-89696579D01*
X135825664Y-89565037D01*
X135820010Y-89544231D01*
X135807818Y-89499361D01*
X135795352Y-89453483D01*
X135796769Y-89383629D01*
X135835727Y-89325629D01*
X135867561Y-89306408D01*
X135972355Y-89263001D01*
X135972368Y-89262994D01*
X136144335Y-89148089D01*
X136144339Y-89148086D01*
X136290586Y-89001839D01*
X136290589Y-89001835D01*
X136405494Y-88829868D01*
X136405499Y-88829858D01*
X136484648Y-88638776D01*
X136484649Y-88638774D01*
X136495843Y-88582500D01*
X135641988Y-88582500D01*
X135659205Y-88572560D01*
X135715060Y-88516705D01*
X135754556Y-88448296D01*
X135775000Y-88371996D01*
X135775000Y-88293004D01*
X135754556Y-88216704D01*
X135715060Y-88148295D01*
X135659205Y-88092440D01*
X135641988Y-88082500D01*
X136495843Y-88082500D01*
X136484649Y-88026225D01*
X136484648Y-88026223D01*
X136405499Y-87835141D01*
X136405494Y-87835131D01*
X136290589Y-87663164D01*
X136290586Y-87663160D01*
X136144339Y-87516913D01*
X136144335Y-87516910D01*
X135972368Y-87402005D01*
X135972358Y-87402000D01*
X135781274Y-87322850D01*
X135781266Y-87322848D01*
X135578420Y-87282500D01*
X135425000Y-87282500D01*
X135425000Y-88032500D01*
X134925000Y-88032500D01*
X134925000Y-87282500D01*
X134771579Y-87282500D01*
X134568733Y-87322848D01*
X134568725Y-87322850D01*
X134377641Y-87402000D01*
X134377631Y-87402005D01*
X134205664Y-87516910D01*
X134205660Y-87516913D01*
X134059413Y-87663160D01*
X134059410Y-87663164D01*
X133944505Y-87835131D01*
X133944500Y-87835141D01*
X133865351Y-88026223D01*
X133865350Y-88026225D01*
X133854157Y-88082500D01*
X134708012Y-88082500D01*
X134690795Y-88092440D01*
X134634940Y-88148295D01*
X134595444Y-88216704D01*
X134575000Y-88293004D01*
X134575000Y-88371996D01*
X134595444Y-88448296D01*
X134634940Y-88516705D01*
X134690795Y-88572560D01*
X134708012Y-88582500D01*
X133854157Y-88582500D01*
X133865350Y-88638774D01*
X133865351Y-88638776D01*
X133944500Y-88829858D01*
X133944505Y-88829868D01*
X134017498Y-88939109D01*
X134038376Y-89005787D01*
X134019891Y-89073167D01*
X133967913Y-89119857D01*
X133914396Y-89132000D01*
X132635604Y-89132000D01*
X132568565Y-89112315D01*
X132522810Y-89059511D01*
X132512866Y-88990353D01*
X132532502Y-88939109D01*
X132605494Y-88829868D01*
X132605499Y-88829858D01*
X132684648Y-88638776D01*
X132684649Y-88638774D01*
X132695843Y-88582500D01*
X131841988Y-88582500D01*
X131859205Y-88572560D01*
X131915060Y-88516705D01*
X131954556Y-88448296D01*
X131975000Y-88371996D01*
X131975000Y-88293004D01*
X131954556Y-88216704D01*
X131915060Y-88148295D01*
X131859205Y-88092440D01*
X131841988Y-88082500D01*
X132695843Y-88082500D01*
X132684649Y-88026225D01*
X132684648Y-88026223D01*
X132605499Y-87835141D01*
X132605494Y-87835131D01*
X132490589Y-87663164D01*
X132490586Y-87663160D01*
X132344339Y-87516913D01*
X132344335Y-87516910D01*
X132172368Y-87402005D01*
X132172358Y-87402000D01*
X131981274Y-87322850D01*
X131981266Y-87322848D01*
X131778420Y-87282500D01*
X131425000Y-87282500D01*
X131425000Y-88032500D01*
X130925000Y-88032500D01*
X130925000Y-87282500D01*
X130571579Y-87282500D01*
X130368733Y-87322848D01*
X130368725Y-87322850D01*
X130177641Y-87402000D01*
X130177626Y-87402008D01*
X130018390Y-87508406D01*
X129951713Y-87529284D01*
X129884333Y-87510799D01*
X129837643Y-87458820D01*
X129825500Y-87405304D01*
X129825500Y-87292619D01*
X129825499Y-87292616D01*
X129821309Y-87282500D01*
X129794976Y-87218926D01*
X129738574Y-87162524D01*
X129664883Y-87132000D01*
X129664882Y-87132000D01*
X129585118Y-87132000D01*
X129585116Y-87132000D01*
X129511425Y-87162524D01*
X129455024Y-87218925D01*
X129424500Y-87292616D01*
X128500500Y-87292616D01*
X128500500Y-86124500D01*
X128520185Y-86057461D01*
X128572989Y-86011706D01*
X128624500Y-86000500D01*
X171975500Y-86000500D01*
X172042539Y-86020185D01*
G37*
%TD.AperFunction*%
%TD*%
M02*
