%TF.GenerationSoftware,KiCad,Pcbnew,10.0.5*%
%TF.CreationDate,2026-09-30T23:19:41+05:30*%
%TF.ProjectId,Charger Board,43686172-6765-4722-9042-6f6172642e6b,rev?*%
%TF.SameCoordinates,Original*%
%TF.FileFunction,Copper,L1,Top*%
%TF.FilePolarity,Positive*%
%FSLAX46Y46*%
G04 Gerber Fmt 4.6, Leading zero omitted, Abs format (unit mm)*
G04 Created by KiCad (PCBNEW 10.0.5) date 2026-09-30 23:19:41*
%MOMM*%
%LPD*%
G01*
G04 APERTURE LIST*
G04 Aperture macros list*
%AMRoundRect*
0 Rectangle with rounded corners*
0 $1 Rounding radius*
0 $2 $3 $4 $5 $6 $7 $8 $9 X,Y pos of 4 corners*
0 Add a 4 corners polygon primitive as box body*
4,1,4,$2,$3,$4,$5,$6,$7,$8,$9,$2,$3,0*
0 Add four circle primitives for the rounded corners*
1,1,$1+$1,$2,$3*
1,1,$1+$1,$4,$5*
1,1,$1+$1,$6,$7*
1,1,$1+$1,$8,$9*
0 Add four rect primitives between the rounded corners*
20,1,$1+$1,$2,$3,$4,$5,0*
20,1,$1+$1,$4,$5,$6,$7,0*
20,1,$1+$1,$6,$7,$8,$9,0*
20,1,$1+$1,$8,$9,$2,$3,0*%
G04 Aperture macros list end*
%TA.AperFunction,ComponentPad*%
%ADD10O,1.700000X1.100000*%
%TD*%
%TA.AperFunction,ComponentPad*%
%ADD11O,2.100000X1.100000*%
%TD*%
%TA.AperFunction,SMDPad,CuDef*%
%ADD12R,1.200000X0.700000*%
%TD*%
%TA.AperFunction,SMDPad,CuDef*%
%ADD13R,1.200000X0.760000*%
%TD*%
%TA.AperFunction,SMDPad,CuDef*%
%ADD14R,1.200000X0.800000*%
%TD*%
%TA.AperFunction,SMDPad,CuDef*%
%ADD15RoundRect,0.150000X0.825000X0.150000X-0.825000X0.150000X-0.825000X-0.150000X0.825000X-0.150000X0*%
%TD*%
%TA.AperFunction,HeatsinkPad*%
%ADD16C,0.500000*%
%TD*%
%TA.AperFunction,HeatsinkPad*%
%ADD17R,2.410000X3.300000*%
%TD*%
%TA.AperFunction,SMDPad,CuDef*%
%ADD18RoundRect,0.250000X-0.262500X-0.450000X0.262500X-0.450000X0.262500X0.450000X-0.262500X0.450000X0*%
%TD*%
%TA.AperFunction,SMDPad,CuDef*%
%ADD19RoundRect,0.250000X0.262500X0.450000X-0.262500X0.450000X-0.262500X-0.450000X0.262500X-0.450000X0*%
%TD*%
%TA.AperFunction,SMDPad,CuDef*%
%ADD20RoundRect,0.243750X-0.243750X-0.456250X0.243750X-0.456250X0.243750X0.456250X-0.243750X0.456250X0*%
%TD*%
%TA.AperFunction,SMDPad,CuDef*%
%ADD21RoundRect,0.250000X-0.250000X-0.475000X0.250000X-0.475000X0.250000X0.475000X-0.250000X0.475000X0*%
%TD*%
%TA.AperFunction,ComponentPad*%
%ADD22RoundRect,0.250000X1.050000X-1.050000X1.050000X1.050000X-1.050000X1.050000X-1.050000X-1.050000X0*%
%TD*%
%TA.AperFunction,ComponentPad*%
%ADD23C,2.600000*%
%TD*%
%TA.AperFunction,ViaPad*%
%ADD24C,0.600000*%
%TD*%
%TA.AperFunction,Conductor*%
%ADD25C,0.200000*%
%TD*%
G04 APERTURE END LIST*
D10*
%TO.P,J1,S4,SHIELD_S4*%
%TO.N,GND*%
X135175000Y-99572500D03*
%TO.P,J1,S3,SHIELD_S3*%
X135175000Y-88332500D03*
D11*
%TO.P,J1,S2,SHIELD_S2*%
X131175000Y-99572500D03*
%TO.P,J1,S1,SHIELD_S1*%
X131175000Y-88332500D03*
D12*
%TO.P,J1,B5,CC2_B5*%
%TO.N,unconnected-(J1-CC2-PadB5)*%
X136125000Y-94452500D03*
%TO.P,J1,A5,CC1_A5*%
%TO.N,unconnected-(J1-CC1-PadA5)*%
X136125000Y-93452500D03*
D13*
%TO.P,J1,A9,VBUS_A9*%
%TO.N,VBUS*%
X136125000Y-95472500D03*
%TO.P,J1,B9,VBUS_B9*%
X136125000Y-92432500D03*
D14*
%TO.P,J1,A12,GND_A12*%
%TO.N,GND*%
X136125000Y-96702500D03*
%TO.P,J1,B12,GND_B12*%
X136125000Y-91202500D03*
%TD*%
D15*
%TO.P,U1,1,TEMP_1*%
%TO.N,Net-(U1-TEMP)*%
X147425000Y-95905000D03*
%TO.P,U1,2,PROG_2*%
%TO.N,Net-(U1-PROG)*%
X147425000Y-94635000D03*
%TO.P,U1,3,GND_3*%
%TO.N,GND*%
X147425000Y-93365000D03*
%TO.P,U1,4,V_{CC}_4*%
%TO.N,VBUS*%
X147425000Y-92095000D03*
%TO.P,U1,5,BAT_5*%
%TO.N,Net-(BT1-+)*%
X142475000Y-92095000D03*
%TO.P,U1,6,~{STDBY}_6*%
%TO.N,Net-(D2-K)*%
X142475000Y-93365000D03*
%TO.P,U1,7,~{CHRG}_7*%
%TO.N,Net-(D1-K)*%
X142475000Y-94635000D03*
%TO.P,U1,8,CE_8*%
%TO.N,VBUS*%
X142475000Y-95905000D03*
D16*
%TO.P,U1,9,EPAD_9*%
%TO.N,GND*%
X145650000Y-95200000D03*
X145650000Y-94000000D03*
X145650000Y-92800000D03*
D17*
X144950000Y-94000000D03*
D16*
X144250000Y-95200000D03*
X144250000Y-94000000D03*
X144250000Y-92800000D03*
%TD*%
D18*
%TO.P,R3,1*%
%TO.N,VBUS*%
X150837500Y-88800000D03*
%TO.P,R3,2*%
%TO.N,Net-(D2-A)*%
X152662500Y-88800000D03*
%TD*%
D19*
%TO.P,R2,1*%
%TO.N,VBUS*%
X148050000Y-88800000D03*
%TO.P,R2,2*%
%TO.N,Net-(D1-A)*%
X146225000Y-88800000D03*
%TD*%
%TO.P,R1,1*%
%TO.N,Net-(U1-PROG)*%
X143262500Y-88700000D03*
%TO.P,R1,2*%
%TO.N,GND*%
X141437500Y-88700000D03*
%TD*%
D20*
%TO.P,D2,1,K_1*%
%TO.N,Net-(D2-K)*%
X155612500Y-97000000D03*
%TO.P,D2,2,A_2*%
%TO.N,Net-(D2-A)*%
X157487500Y-97000000D03*
%TD*%
%TO.P,D1,1,K_1*%
%TO.N,Net-(D1-K)*%
X150812500Y-97100000D03*
%TO.P,D1,2,A_2*%
%TO.N,Net-(D1-A)*%
X152687500Y-97100000D03*
%TD*%
D21*
%TO.P,C2,1*%
%TO.N,VBUS*%
X155800000Y-93000000D03*
%TO.P,C2,2*%
%TO.N,GND*%
X157700000Y-93000000D03*
%TD*%
%TO.P,C1,1*%
%TO.N,Net-(U1-TEMP)*%
X150700000Y-92800000D03*
%TO.P,C1,2*%
%TO.N,GND*%
X152600000Y-92800000D03*
%TD*%
D22*
%TO.P,BT1,1,+_1*%
%TO.N,Net-(BT1-+)*%
X166872500Y-96400000D03*
D23*
%TO.P,BT1,2,-_2*%
%TO.N,GND*%
X166872500Y-91400000D03*
%TD*%
D24*
%TO.N,GND*%
X157300000Y-94900000D03*
X152600000Y-94600000D03*
X151600000Y-91000000D03*
X148900000Y-92000000D03*
%TO.N,VBUS*%
X152600000Y-90300000D03*
%TO.N,Net-(D2-A)*%
X153800000Y-90100000D03*
%TO.N,Net-(D1-K)*%
X143400000Y-98100000D03*
%TO.N,Net-(D2-K)*%
X151300000Y-98300000D03*
%TO.N,Net-(D2-A)*%
X160000000Y-93200000D03*
%TO.N,VBUS*%
X155700000Y-90200000D03*
%TO.N,Net-(D1-K)*%
X139800000Y-93900000D03*
%TO.N,Net-(D2-K)*%
X140100000Y-92700000D03*
%TO.N,Net-(BT1-+)*%
X140300000Y-91200000D03*
%TO.N,Net-(U1-PROG)*%
X148900000Y-91000000D03*
X146300000Y-90700000D03*
%TO.N,GND*%
X138500000Y-92300000D03*
X138400000Y-95500000D03*
%TD*%
%TO.N,GND*%
D25*
X157700000Y-94500000D02*
X157300000Y-94900000D01*
X157700000Y-93000000D02*
X157700000Y-94500000D01*
X152600000Y-92800000D02*
X152600000Y-94600000D01*
X152600000Y-92000000D02*
X151600000Y-91000000D01*
X152600000Y-92800000D02*
X152600000Y-92000000D01*
X148900000Y-92900000D02*
X148900000Y-92000000D01*
X148435000Y-93365000D02*
X148900000Y-92900000D01*
X147425000Y-93365000D02*
X148435000Y-93365000D01*
%TO.N,Net-(D2-A)*%
X152662500Y-88962500D02*
X153800000Y-90100000D01*
X152662500Y-88800000D02*
X152662500Y-88962500D01*
%TO.N,Net-(U1-TEMP)*%
X148460685Y-95905000D02*
X150700000Y-93665685D01*
X147425000Y-95905000D02*
X148460685Y-95905000D01*
X150700000Y-93665685D02*
X150700000Y-92800000D01*
%TO.N,VBUS*%
X152600000Y-90300000D02*
X148050000Y-90300000D01*
X154000000Y-91700000D02*
X152600000Y-90300000D01*
X154000000Y-94400000D02*
X154000000Y-91700000D01*
X152700000Y-95700000D02*
X154000000Y-94400000D01*
X148050000Y-91470000D02*
X148050000Y-90300000D01*
X149309744Y-95700000D02*
X152700000Y-95700000D01*
X148504744Y-96505000D02*
X149309744Y-95700000D01*
X143075000Y-96505000D02*
X148504744Y-96505000D01*
X142475000Y-95905000D02*
X143075000Y-96505000D01*
%TO.N,GND*%
X145585000Y-93365000D02*
X144950000Y-94000000D01*
X147425000Y-93365000D02*
X145585000Y-93365000D01*
%TO.N,Net-(D1-K)*%
X149812500Y-98100000D02*
X143400000Y-98100000D01*
X150812500Y-97100000D02*
X149812500Y-98100000D01*
%TO.N,Net-(D2-K)*%
X154312500Y-98300000D02*
X151300000Y-98300000D01*
X155612500Y-97000000D02*
X154312500Y-98300000D01*
%TO.N,Net-(D2-A)*%
X160100000Y-93300000D02*
X160000000Y-93200000D01*
X160100000Y-94387500D02*
X160100000Y-93300000D01*
X157487500Y-97000000D02*
X160100000Y-94387500D01*
%TO.N,GND*%
X159300000Y-91400000D02*
X166872500Y-91400000D01*
X157700000Y-93000000D02*
X159300000Y-91400000D01*
%TO.N,VBUS*%
X155800000Y-90300000D02*
X155700000Y-90200000D01*
X155800000Y-93000000D02*
X155800000Y-90300000D01*
%TO.N,Net-(D1-K)*%
X140535000Y-94635000D02*
X139800000Y-93900000D01*
X142475000Y-94635000D02*
X140535000Y-94635000D01*
%TO.N,Net-(D2-K)*%
X140765000Y-93365000D02*
X140100000Y-92700000D01*
X142475000Y-93365000D02*
X140765000Y-93365000D01*
%TO.N,Net-(BT1-+)*%
X141195000Y-92095000D02*
X140300000Y-91200000D01*
X142475000Y-92095000D02*
X141195000Y-92095000D01*
%TO.N,Net-(D1-A)*%
X154400000Y-88300000D02*
X154400000Y-95387500D01*
X154400000Y-95387500D02*
X152687500Y-97100000D01*
X153300000Y-87200000D02*
X154400000Y-88300000D01*
X147825000Y-87200000D02*
X153300000Y-87200000D01*
X146225000Y-88800000D02*
X147825000Y-87200000D01*
%TO.N,Net-(U1-PROG)*%
X149100000Y-91000000D02*
X148900000Y-91000000D01*
X149500000Y-91400000D02*
X149100000Y-91000000D01*
X147425000Y-94635000D02*
X149165000Y-94635000D01*
X149165000Y-94635000D02*
X149500000Y-94300000D01*
X149500000Y-94300000D02*
X149500000Y-91400000D01*
X143262500Y-89662500D02*
X144300000Y-90700000D01*
X144300000Y-90700000D02*
X146300000Y-90700000D01*
X143262500Y-88700000D02*
X143262500Y-89662500D01*
%TO.N,VBUS*%
X148050000Y-90300000D02*
X148050000Y-88800000D01*
X147425000Y-92095000D02*
X148050000Y-91470000D01*
X148050000Y-88800000D02*
X150837500Y-88800000D01*
%TO.N,GND*%
X144950000Y-92212500D02*
X144950000Y-94000000D01*
X141437500Y-88700000D02*
X144950000Y-92212500D01*
X138600000Y-88700000D02*
X137600000Y-89700000D01*
X141437500Y-88700000D02*
X138600000Y-88700000D01*
X137600000Y-90900000D02*
X137600000Y-89700000D01*
X137402500Y-91202500D02*
X138500000Y-92300000D01*
X136125000Y-91202500D02*
X137402500Y-91202500D01*
X137197500Y-96702500D02*
X138400000Y-95500000D01*
X136125000Y-96702500D02*
X137197500Y-96702500D01*
%TO.N,VBUS*%
X140405000Y-95905000D02*
X142475000Y-95905000D01*
X138700000Y-94200000D02*
X140405000Y-95905000D01*
X137800000Y-94200000D02*
X138700000Y-94200000D01*
X136527500Y-95472500D02*
X136125000Y-95472500D01*
X137800000Y-93307500D02*
X137800000Y-94200000D01*
X137800000Y-94200000D02*
X136527500Y-95472500D01*
X136925000Y-92432500D02*
X137800000Y-93307500D01*
X136125000Y-92432500D02*
X136925000Y-92432500D01*
%TO.N,GND*%
X138200000Y-97800000D02*
X137102500Y-96702500D01*
X137102500Y-96702500D02*
X136125000Y-96702500D01*
X138200000Y-99300000D02*
X138200000Y-97800000D01*
X137927500Y-99572500D02*
X138200000Y-99300000D01*
X135175000Y-99572500D02*
X137927500Y-99572500D01*
X136332500Y-88332500D02*
X135175000Y-88332500D01*
X137600000Y-89600000D02*
X136332500Y-88332500D01*
X137600000Y-89700000D02*
X137600000Y-89600000D01*
X137297500Y-91202500D02*
X137600000Y-90900000D01*
X136125000Y-91202500D02*
X137297500Y-91202500D01*
X131175000Y-99572500D02*
X135175000Y-99572500D01*
X131175000Y-88332500D02*
X135175000Y-88332500D01*
%TO.N,VBUS*%
X136125000Y-95472500D02*
X136655000Y-95472500D01*
%TD*%
%TA.AperFunction,Conductor*%
%TO.N,GND*%
G36*
X152087273Y-90920185D02*
G01*
X152089125Y-90921398D01*
X152220814Y-91009390D01*
X152220827Y-91009397D01*
X152366498Y-91069735D01*
X152366503Y-91069737D01*
X152431147Y-91082595D01*
X152521849Y-91100638D01*
X152583760Y-91133023D01*
X152585339Y-91134574D01*
X152850201Y-91399436D01*
X152883686Y-91460759D01*
X152878702Y-91530451D01*
X152850202Y-91574797D01*
X152850000Y-91574999D01*
X152850000Y-94024999D01*
X152899972Y-94024999D01*
X152899986Y-94024998D01*
X153002697Y-94014505D01*
X153169119Y-93959358D01*
X153169130Y-93959353D01*
X153210403Y-93933896D01*
X153277795Y-93915455D01*
X153344459Y-93936377D01*
X153389229Y-93990019D01*
X153399500Y-94039434D01*
X153399500Y-94099902D01*
X153379815Y-94166941D01*
X153363181Y-94187583D01*
X152487584Y-95063181D01*
X152426261Y-95096666D01*
X152399903Y-95099500D01*
X150414783Y-95099500D01*
X150347744Y-95079815D01*
X150301989Y-95027011D01*
X150292045Y-94957853D01*
X150321070Y-94894297D01*
X150327102Y-94887819D01*
X151180515Y-94034406D01*
X151180520Y-94034401D01*
X151189165Y-94019425D01*
X151239727Y-93971212D01*
X151257549Y-93963718D01*
X151269334Y-93959814D01*
X151418656Y-93867712D01*
X151542712Y-93743656D01*
X151544752Y-93740347D01*
X151546745Y-93738555D01*
X151547193Y-93737989D01*
X151547289Y-93738065D01*
X151596694Y-93693623D01*
X151665656Y-93682395D01*
X151729740Y-93710234D01*
X151755829Y-93740339D01*
X151757681Y-93743341D01*
X151757683Y-93743344D01*
X151881654Y-93867315D01*
X152030875Y-93959356D01*
X152030880Y-93959358D01*
X152197302Y-94014505D01*
X152197309Y-94014506D01*
X152300019Y-94024999D01*
X152349999Y-94024998D01*
X152350000Y-94024998D01*
X152350000Y-91575000D01*
X152349999Y-91574999D01*
X152300029Y-91575000D01*
X152300011Y-91575001D01*
X152197302Y-91585494D01*
X152030880Y-91640641D01*
X152030875Y-91640643D01*
X151881654Y-91732684D01*
X151757683Y-91856655D01*
X151757679Y-91856660D01*
X151755826Y-91859665D01*
X151754018Y-91861290D01*
X151753202Y-91862323D01*
X151753025Y-91862183D01*
X151703874Y-91906385D01*
X151634911Y-91917601D01*
X151570831Y-91889752D01*
X151544753Y-91859653D01*
X151544602Y-91859409D01*
X151542712Y-91856344D01*
X151418656Y-91732288D01*
X151285803Y-91650344D01*
X151269336Y-91640187D01*
X151269331Y-91640185D01*
X151267862Y-91639698D01*
X151102797Y-91585001D01*
X151102795Y-91585000D01*
X151000010Y-91574500D01*
X150399998Y-91574500D01*
X150399980Y-91574501D01*
X150297203Y-91585000D01*
X150297196Y-91585002D01*
X150263503Y-91596167D01*
X150193674Y-91598568D01*
X150133633Y-91562836D01*
X150102441Y-91500315D01*
X150100500Y-91478461D01*
X150100500Y-91320945D01*
X150100500Y-91320943D01*
X150059577Y-91168216D01*
X150012397Y-91086498D01*
X149995926Y-91018599D01*
X150018779Y-90952572D01*
X150073701Y-90909382D01*
X150119786Y-90900500D01*
X152020234Y-90900500D01*
X152087273Y-90920185D01*
G37*
%TD.AperFunction*%
%TA.AperFunction,Conductor*%
G36*
X172042539Y-86020185D02*
G01*
X172088294Y-86072989D01*
X172099500Y-86124500D01*
X172099500Y-101575500D01*
X172079815Y-101642539D01*
X172027011Y-101688294D01*
X171975500Y-101699500D01*
X128624500Y-101699500D01*
X128557461Y-101679815D01*
X128511706Y-101627011D01*
X128500500Y-101575500D01*
X128500500Y-87292616D01*
X129424500Y-87292616D01*
X129424500Y-89372383D01*
X129447559Y-89428051D01*
X129455024Y-89446074D01*
X129511426Y-89502476D01*
X129585118Y-89533000D01*
X129664882Y-89533000D01*
X135200158Y-89533000D01*
X135267197Y-89552685D01*
X135312952Y-89605489D01*
X135322896Y-89674647D01*
X135293871Y-89738203D01*
X135255767Y-89767831D01*
X135243758Y-89773856D01*
X135243755Y-89773858D01*
X135176357Y-89841256D01*
X135133612Y-89926447D01*
X135133611Y-89926452D01*
X135132564Y-89933480D01*
X135124513Y-89962546D01*
X135124500Y-89962617D01*
X135124500Y-89978978D01*
X135123205Y-89996852D01*
X135120845Y-90013050D01*
X135120895Y-90014024D01*
X135124500Y-90042943D01*
X135124500Y-90461894D01*
X135104815Y-90528933D01*
X135099768Y-90536204D01*
X135081646Y-90560411D01*
X135081645Y-90560413D01*
X135031403Y-90695120D01*
X135031401Y-90695127D01*
X135025000Y-90754655D01*
X135025000Y-90952500D01*
X135035184Y-90962684D01*
X135067539Y-90972185D01*
X135113294Y-91024989D01*
X135124500Y-91076500D01*
X135124500Y-91328500D01*
X135104815Y-91395539D01*
X135052011Y-91441294D01*
X135031811Y-91445688D01*
X135025000Y-91452500D01*
X135025000Y-91650344D01*
X135031401Y-91709872D01*
X135031403Y-91709879D01*
X135058844Y-91783452D01*
X135063828Y-91853143D01*
X135058844Y-91870118D01*
X135030908Y-91945017D01*
X135024501Y-92004616D01*
X135024500Y-92004635D01*
X135024500Y-92860370D01*
X135024501Y-92860374D01*
X135030909Y-92919984D01*
X135032692Y-92927528D01*
X135029749Y-92928223D01*
X135033719Y-92983881D01*
X135032667Y-92987461D01*
X135032693Y-92987468D01*
X135030908Y-92995020D01*
X135024501Y-93054616D01*
X135024500Y-93054635D01*
X135024500Y-93850370D01*
X135024501Y-93850376D01*
X135030908Y-93909979D01*
X135032692Y-93917526D01*
X135031229Y-93917871D01*
X135035585Y-93978871D01*
X135031173Y-93993896D01*
X135030908Y-93995017D01*
X135024501Y-94054616D01*
X135024500Y-94054635D01*
X135024500Y-94850370D01*
X135024501Y-94850374D01*
X135030909Y-94909984D01*
X135032692Y-94917528D01*
X135029749Y-94918223D01*
X135033719Y-94973881D01*
X135032667Y-94977461D01*
X135032693Y-94977468D01*
X135030908Y-94985020D01*
X135024501Y-95044616D01*
X135024500Y-95044635D01*
X135024500Y-95900370D01*
X135024501Y-95900376D01*
X135030909Y-95959985D01*
X135058843Y-96034882D01*
X135063827Y-96104574D01*
X135058844Y-96121546D01*
X135031402Y-96195123D01*
X135031401Y-96195127D01*
X135025000Y-96254655D01*
X135025000Y-96452500D01*
X135035184Y-96462684D01*
X135067539Y-96472185D01*
X135113294Y-96524989D01*
X135124500Y-96576500D01*
X135124500Y-96828500D01*
X135104815Y-96895539D01*
X135052011Y-96941294D01*
X135031811Y-96945688D01*
X135025000Y-96952500D01*
X135025000Y-97150344D01*
X135031401Y-97209872D01*
X135031402Y-97209876D01*
X135081648Y-97344591D01*
X135099767Y-97368794D01*
X135124184Y-97434258D01*
X135124500Y-97443105D01*
X135124500Y-97862056D01*
X135120895Y-97890986D01*
X135120845Y-97891949D01*
X135123204Y-97908137D01*
X135124500Y-97926016D01*
X135124500Y-97942382D01*
X135124501Y-97942384D01*
X135124516Y-97942464D01*
X135132564Y-97971519D01*
X135133610Y-97978546D01*
X135133612Y-97978551D01*
X135176357Y-98063743D01*
X135243755Y-98131141D01*
X135243758Y-98131143D01*
X135255767Y-98137169D01*
X135306859Y-98184827D01*
X135324075Y-98252543D01*
X135301947Y-98318816D01*
X135247503Y-98362606D01*
X135200158Y-98372000D01*
X129585116Y-98372000D01*
X129511425Y-98402524D01*
X129455024Y-98458925D01*
X129424500Y-98532616D01*
X129424500Y-100612383D01*
X129428691Y-100622500D01*
X129455024Y-100686074D01*
X129511426Y-100742476D01*
X129585118Y-100773000D01*
X129585120Y-100773000D01*
X129664880Y-100773000D01*
X129664882Y-100773000D01*
X129738574Y-100742476D01*
X129794976Y-100686074D01*
X129825500Y-100612382D01*
X129825500Y-100499695D01*
X129845185Y-100432656D01*
X129897989Y-100386901D01*
X129967147Y-100376957D01*
X130018391Y-100396593D01*
X130177631Y-100502994D01*
X130177641Y-100502999D01*
X130368725Y-100582149D01*
X130368733Y-100582151D01*
X130571579Y-100622499D01*
X130571583Y-100622500D01*
X130925000Y-100622500D01*
X130925000Y-99872500D01*
X131425000Y-99872500D01*
X131425000Y-100622500D01*
X131778417Y-100622500D01*
X131778420Y-100622499D01*
X131981266Y-100582151D01*
X131981274Y-100582149D01*
X132172358Y-100502999D01*
X132172368Y-100502994D01*
X132344335Y-100388089D01*
X132344339Y-100388086D01*
X132490586Y-100241839D01*
X132490589Y-100241835D01*
X132605494Y-100069868D01*
X132605499Y-100069858D01*
X132684648Y-99878776D01*
X132684649Y-99878774D01*
X132695843Y-99822500D01*
X131841988Y-99822500D01*
X131859205Y-99812560D01*
X131915060Y-99756705D01*
X131954556Y-99688296D01*
X131975000Y-99611996D01*
X131975000Y-99533004D01*
X131954556Y-99456704D01*
X131915060Y-99388295D01*
X131859205Y-99332440D01*
X131841988Y-99322500D01*
X132695843Y-99322500D01*
X132684649Y-99266225D01*
X132684648Y-99266223D01*
X132605499Y-99075141D01*
X132605494Y-99075131D01*
X132532502Y-98965891D01*
X132511624Y-98899213D01*
X132530109Y-98831833D01*
X132582087Y-98785143D01*
X132635604Y-98773000D01*
X133914396Y-98773000D01*
X133981435Y-98792685D01*
X134027190Y-98845489D01*
X134037134Y-98914647D01*
X134017498Y-98965891D01*
X133944505Y-99075131D01*
X133944500Y-99075141D01*
X133865351Y-99266223D01*
X133865350Y-99266225D01*
X133854157Y-99322500D01*
X134708012Y-99322500D01*
X134690795Y-99332440D01*
X134634940Y-99388295D01*
X134595444Y-99456704D01*
X134575000Y-99533004D01*
X134575000Y-99611996D01*
X134595444Y-99688296D01*
X134634940Y-99756705D01*
X134690795Y-99812560D01*
X134708012Y-99822500D01*
X133854157Y-99822500D01*
X133865350Y-99878774D01*
X133865351Y-99878776D01*
X133944500Y-100069858D01*
X133944505Y-100069868D01*
X134059410Y-100241835D01*
X134059413Y-100241839D01*
X134205660Y-100388086D01*
X134205664Y-100388089D01*
X134377631Y-100502994D01*
X134377641Y-100502999D01*
X134568725Y-100582149D01*
X134568733Y-100582151D01*
X134771579Y-100622499D01*
X134771583Y-100622500D01*
X134925000Y-100622500D01*
X134925000Y-99872500D01*
X135425000Y-99872500D01*
X135425000Y-100622500D01*
X135578417Y-100622500D01*
X135578420Y-100622499D01*
X135781266Y-100582151D01*
X135781274Y-100582149D01*
X135972358Y-100502999D01*
X135972368Y-100502994D01*
X136144335Y-100388089D01*
X136144339Y-100388086D01*
X136290586Y-100241839D01*
X136290589Y-100241835D01*
X136405494Y-100069868D01*
X136405499Y-100069858D01*
X136484648Y-99878776D01*
X136484649Y-99878774D01*
X136495843Y-99822500D01*
X135641988Y-99822500D01*
X135659205Y-99812560D01*
X135715060Y-99756705D01*
X135754556Y-99688296D01*
X135775000Y-99611996D01*
X135775000Y-99533004D01*
X135754556Y-99456704D01*
X135715060Y-99388295D01*
X135659205Y-99332440D01*
X135641988Y-99322500D01*
X136495843Y-99322500D01*
X136484649Y-99266225D01*
X136484648Y-99266223D01*
X136405499Y-99075141D01*
X136405494Y-99075131D01*
X136290589Y-98903164D01*
X136290586Y-98903160D01*
X136144339Y-98756913D01*
X136144335Y-98756910D01*
X135972368Y-98642005D01*
X135972358Y-98642000D01*
X135867560Y-98598591D01*
X135813157Y-98554750D01*
X135791092Y-98488455D01*
X135795351Y-98451517D01*
X135825664Y-98339963D01*
X135826219Y-98208421D01*
X135792800Y-98081194D01*
X135727671Y-97966906D01*
X135635248Y-97873304D01*
X135635247Y-97873303D01*
X135635246Y-97873302D01*
X135586745Y-97844843D01*
X135538887Y-97793937D01*
X135525500Y-97737895D01*
X135525500Y-97726500D01*
X135545185Y-97659461D01*
X135597989Y-97613706D01*
X135649500Y-97602500D01*
X135875000Y-97602500D01*
X136375000Y-97602500D01*
X136772828Y-97602500D01*
X136772844Y-97602499D01*
X136832372Y-97596098D01*
X136832379Y-97596096D01*
X136967086Y-97545854D01*
X136967093Y-97545850D01*
X137082187Y-97459690D01*
X137082190Y-97459687D01*
X137168350Y-97344593D01*
X137168354Y-97344586D01*
X137218596Y-97209879D01*
X137218598Y-97209872D01*
X137224999Y-97150344D01*
X137225000Y-97150327D01*
X137225000Y-96952500D01*
X136375000Y-96952500D01*
X136375000Y-97602500D01*
X135875000Y-97602500D01*
X135875000Y-96952500D01*
X135649500Y-96952500D01*
X135582461Y-96932815D01*
X135536706Y-96880011D01*
X135525500Y-96828500D01*
X135525500Y-96576500D01*
X135545185Y-96509461D01*
X135597989Y-96463706D01*
X135649500Y-96452500D01*
X137225000Y-96452500D01*
X137225000Y-96254672D01*
X137224999Y-96254655D01*
X137218598Y-96195123D01*
X137191155Y-96121547D01*
X137186171Y-96051855D01*
X137191148Y-96034899D01*
X137219091Y-95959983D01*
X137225500Y-95900373D01*
X137225499Y-95679844D01*
X137229721Y-95647762D01*
X137231459Y-95641274D01*
X137263553Y-95585680D01*
X138012417Y-94836819D01*
X138073740Y-94803334D01*
X138100098Y-94800500D01*
X138399903Y-94800500D01*
X138466942Y-94820185D01*
X138487584Y-94836819D01*
X139920139Y-96269374D01*
X139920149Y-96269385D01*
X139924479Y-96273715D01*
X139924480Y-96273716D01*
X140036284Y-96385520D01*
X140123095Y-96435639D01*
X140123097Y-96435641D01*
X140152298Y-96452500D01*
X140173215Y-96464577D01*
X140325943Y-96505500D01*
X140484057Y-96505500D01*
X141129192Y-96505500D01*
X141196231Y-96525185D01*
X141216874Y-96541820D01*
X141248129Y-96573076D01*
X141248133Y-96573079D01*
X141248135Y-96573081D01*
X141389602Y-96656744D01*
X141431224Y-96668836D01*
X141547426Y-96702597D01*
X141547429Y-96702597D01*
X141547431Y-96702598D01*
X141584306Y-96705500D01*
X142374903Y-96705500D01*
X142441942Y-96725185D01*
X142462584Y-96741819D01*
X142590139Y-96869374D01*
X142590149Y-96869385D01*
X142594479Y-96873715D01*
X142594480Y-96873716D01*
X142706284Y-96985520D01*
X142753184Y-97012597D01*
X142793095Y-97035639D01*
X142793097Y-97035641D01*
X142831151Y-97057611D01*
X142843215Y-97064577D01*
X142995943Y-97105500D01*
X143085739Y-97105500D01*
X143152778Y-97125185D01*
X143198533Y-97177989D01*
X143208477Y-97247147D01*
X143179452Y-97310703D01*
X143133191Y-97344061D01*
X143020827Y-97390602D01*
X143020814Y-97390609D01*
X142889711Y-97478210D01*
X142889707Y-97478213D01*
X142778213Y-97589707D01*
X142778210Y-97589711D01*
X142690609Y-97720814D01*
X142690602Y-97720827D01*
X142630264Y-97866498D01*
X142630261Y-97866510D01*
X142599500Y-98021153D01*
X142599500Y-98178846D01*
X142630261Y-98333489D01*
X142630264Y-98333501D01*
X142690602Y-98479172D01*
X142690609Y-98479185D01*
X142778210Y-98610288D01*
X142778213Y-98610292D01*
X142889707Y-98721786D01*
X142889711Y-98721789D01*
X143020814Y-98809390D01*
X143020827Y-98809397D01*
X143141972Y-98859576D01*
X143166503Y-98869737D01*
X143314688Y-98899213D01*
X143321153Y-98900499D01*
X143321156Y-98900500D01*
X143321158Y-98900500D01*
X143478844Y-98900500D01*
X143478845Y-98900499D01*
X143633497Y-98869737D01*
X143779179Y-98809394D01*
X143822392Y-98780520D01*
X143910875Y-98721398D01*
X143977553Y-98700520D01*
X143979766Y-98700500D01*
X149725831Y-98700500D01*
X149725847Y-98700501D01*
X149733443Y-98700501D01*
X149891554Y-98700501D01*
X149891557Y-98700501D01*
X150044285Y-98659577D01*
X150094404Y-98630639D01*
X150181216Y-98580520D01*
X150293020Y-98468716D01*
X150293020Y-98468714D01*
X150303228Y-98458507D01*
X150303230Y-98458504D01*
X150316115Y-98445618D01*
X150377436Y-98412135D01*
X150447128Y-98417119D01*
X150503061Y-98458991D01*
X150525411Y-98509107D01*
X150530262Y-98533494D01*
X150530264Y-98533501D01*
X150590602Y-98679172D01*
X150590609Y-98679185D01*
X150678210Y-98810288D01*
X150678213Y-98810292D01*
X150789707Y-98921786D01*
X150789711Y-98921789D01*
X150920814Y-99009390D01*
X150920827Y-99009397D01*
X151066498Y-99069735D01*
X151066503Y-99069737D01*
X151221153Y-99100499D01*
X151221156Y-99100500D01*
X151221158Y-99100500D01*
X151378844Y-99100500D01*
X151378845Y-99100499D01*
X151533497Y-99069737D01*
X151679179Y-99009394D01*
X151744286Y-98965891D01*
X151810875Y-98921398D01*
X151877553Y-98900520D01*
X151879766Y-98900500D01*
X154225831Y-98900500D01*
X154225847Y-98900501D01*
X154233443Y-98900501D01*
X154391554Y-98900501D01*
X154391557Y-98900501D01*
X154544285Y-98859577D01*
X154594404Y-98830639D01*
X154681216Y-98780520D01*
X154793020Y-98668716D01*
X154793020Y-98668714D01*
X154803228Y-98658507D01*
X154803230Y-98658504D01*
X155225081Y-98236652D01*
X155286402Y-98203169D01*
X155315995Y-98200748D01*
X155315995Y-98200500D01*
X155319027Y-98200500D01*
X155319076Y-98200496D01*
X155319149Y-98200499D01*
X155319152Y-98200500D01*
X155319154Y-98200500D01*
X155905843Y-98200500D01*
X155905848Y-98200500D01*
X156007775Y-98190087D01*
X156172925Y-98135362D01*
X156321003Y-98044026D01*
X156444026Y-97921003D01*
X156444458Y-97920301D01*
X156444881Y-97919921D01*
X156448507Y-97915336D01*
X156449290Y-97915955D01*
X156496402Y-97873575D01*
X156565364Y-97862349D01*
X156629448Y-97890188D01*
X156651342Y-97915455D01*
X156651493Y-97915336D01*
X156654143Y-97918687D01*
X156655540Y-97920299D01*
X156655972Y-97920999D01*
X156655975Y-97921004D01*
X156778996Y-98044025D01*
X156779000Y-98044028D01*
X156927066Y-98135357D01*
X156927069Y-98135358D01*
X156927075Y-98135362D01*
X157092225Y-98190087D01*
X157194152Y-98200500D01*
X157194157Y-98200500D01*
X157780843Y-98200500D01*
X157780848Y-98200500D01*
X157882775Y-98190087D01*
X158047925Y-98135362D01*
X158196003Y-98044026D01*
X158319026Y-97921003D01*
X158410362Y-97772925D01*
X158465087Y-97607775D01*
X158475500Y-97505848D01*
X158475500Y-96912596D01*
X158495185Y-96845557D01*
X158511814Y-96824920D01*
X160036750Y-95299983D01*
X165072000Y-95299983D01*
X165072000Y-97500001D01*
X165072001Y-97500018D01*
X165082500Y-97602796D01*
X165082501Y-97602799D01*
X165102510Y-97663181D01*
X165137686Y-97769334D01*
X165229788Y-97918656D01*
X165353844Y-98042712D01*
X165503166Y-98134814D01*
X165669703Y-98189999D01*
X165772491Y-98200500D01*
X167972508Y-98200499D01*
X167972538Y-98200496D01*
X167990395Y-98198671D01*
X168075297Y-98189999D01*
X168241834Y-98134814D01*
X168391156Y-98042712D01*
X168515212Y-97918656D01*
X168607314Y-97769334D01*
X168662499Y-97602797D01*
X168673000Y-97500009D01*
X168672999Y-95299992D01*
X168662499Y-95197203D01*
X168607314Y-95030666D01*
X168515212Y-94881344D01*
X168391156Y-94757288D01*
X168241834Y-94665186D01*
X168075297Y-94610001D01*
X168075295Y-94610000D01*
X167972510Y-94599500D01*
X165772498Y-94599500D01*
X165772481Y-94599501D01*
X165669703Y-94610000D01*
X165669700Y-94610001D01*
X165503168Y-94665185D01*
X165503163Y-94665187D01*
X165353842Y-94757289D01*
X165229789Y-94881342D01*
X165137687Y-95030663D01*
X165137685Y-95030668D01*
X165120386Y-95082873D01*
X165082501Y-95197203D01*
X165082501Y-95197204D01*
X165082500Y-95197204D01*
X165072000Y-95299983D01*
X160036750Y-95299983D01*
X160458506Y-94878227D01*
X160458511Y-94878224D01*
X160468714Y-94868020D01*
X160468716Y-94868020D01*
X160580520Y-94756216D01*
X160642592Y-94648704D01*
X160659577Y-94619285D01*
X160700501Y-94466557D01*
X160700501Y-94308443D01*
X160700501Y-94300848D01*
X160700500Y-94300830D01*
X160700500Y-93625316D01*
X160709939Y-93577864D01*
X160769735Y-93433501D01*
X160769737Y-93433497D01*
X160800500Y-93278842D01*
X160800500Y-93121158D01*
X160800500Y-93121155D01*
X160800499Y-93121153D01*
X160791461Y-93075715D01*
X160769737Y-92966503D01*
X160764809Y-92954605D01*
X160716020Y-92836817D01*
X160716004Y-92836779D01*
X160709396Y-92820827D01*
X160709394Y-92820821D01*
X160709392Y-92820818D01*
X160709390Y-92820814D01*
X160621789Y-92689711D01*
X160621786Y-92689707D01*
X160510292Y-92578213D01*
X160510288Y-92578210D01*
X160379185Y-92490609D01*
X160379172Y-92490602D01*
X160233501Y-92430264D01*
X160233489Y-92430261D01*
X160078845Y-92399500D01*
X160078842Y-92399500D01*
X159921158Y-92399500D01*
X159921155Y-92399500D01*
X159766510Y-92430261D01*
X159766498Y-92430264D01*
X159620827Y-92490602D01*
X159620814Y-92490609D01*
X159489711Y-92578210D01*
X159489707Y-92578213D01*
X159378213Y-92689707D01*
X159378210Y-92689711D01*
X159290609Y-92820814D01*
X159290602Y-92820827D01*
X159230264Y-92966498D01*
X159230261Y-92966510D01*
X159199500Y-93121153D01*
X159199500Y-93278846D01*
X159230261Y-93433489D01*
X159230264Y-93433501D01*
X159290602Y-93579172D01*
X159290609Y-93579185D01*
X159378209Y-93710287D01*
X159378210Y-93710288D01*
X159378211Y-93710289D01*
X159463182Y-93795260D01*
X159496666Y-93856581D01*
X159499500Y-93882940D01*
X159499500Y-94087402D01*
X159479815Y-94154441D01*
X159463181Y-94175083D01*
X157874918Y-95763345D01*
X157813595Y-95796830D01*
X157784005Y-95799254D01*
X157784005Y-95799500D01*
X157781014Y-95799500D01*
X157780953Y-95799505D01*
X157780854Y-95799500D01*
X157780848Y-95799500D01*
X157194152Y-95799500D01*
X157194144Y-95799500D01*
X157092223Y-95809913D01*
X156927077Y-95864637D01*
X156927066Y-95864642D01*
X156779000Y-95955971D01*
X156778996Y-95955974D01*
X156655974Y-96078996D01*
X156655971Y-96079000D01*
X156655538Y-96079703D01*
X156655114Y-96080083D01*
X156651493Y-96084664D01*
X156650710Y-96084045D01*
X156603590Y-96126428D01*
X156534628Y-96137649D01*
X156470546Y-96109806D01*
X156448657Y-96084544D01*
X156448507Y-96084664D01*
X156445859Y-96081315D01*
X156444462Y-96079703D01*
X156444028Y-96079000D01*
X156444025Y-96078996D01*
X156321003Y-95955974D01*
X156320999Y-95955971D01*
X156172933Y-95864642D01*
X156172927Y-95864639D01*
X156172925Y-95864638D01*
X156153149Y-95858085D01*
X156007776Y-95809913D01*
X155905855Y-95799500D01*
X155905848Y-95799500D01*
X155319152Y-95799500D01*
X155319144Y-95799500D01*
X155217223Y-95809913D01*
X155071849Y-95858085D01*
X155002020Y-95860487D01*
X154941978Y-95824755D01*
X154910786Y-95762234D01*
X154918347Y-95692775D01*
X154925449Y-95678394D01*
X154959577Y-95619284D01*
X155000501Y-95466557D01*
X155000501Y-95308442D01*
X155000501Y-95300847D01*
X155000500Y-95300829D01*
X155000500Y-94240021D01*
X155020185Y-94172982D01*
X155072989Y-94127227D01*
X155142147Y-94117283D01*
X155189594Y-94134481D01*
X155230666Y-94159814D01*
X155397203Y-94214999D01*
X155499991Y-94225500D01*
X156100008Y-94225499D01*
X156100016Y-94225498D01*
X156100019Y-94225498D01*
X156156302Y-94219748D01*
X156202797Y-94214999D01*
X156369334Y-94159814D01*
X156518656Y-94067712D01*
X156642712Y-93943656D01*
X156644752Y-93940347D01*
X156646745Y-93938555D01*
X156647193Y-93937989D01*
X156647289Y-93938065D01*
X156696694Y-93893623D01*
X156765656Y-93882395D01*
X156829740Y-93910234D01*
X156855829Y-93940339D01*
X156857681Y-93943341D01*
X156857683Y-93943344D01*
X156981654Y-94067315D01*
X157130875Y-94159356D01*
X157130880Y-94159358D01*
X157297302Y-94214505D01*
X157297309Y-94214506D01*
X157400019Y-94224999D01*
X157950000Y-94224999D01*
X157999972Y-94224999D01*
X157999986Y-94224998D01*
X158102697Y-94214505D01*
X158269119Y-94159358D01*
X158269124Y-94159356D01*
X158418345Y-94067315D01*
X158542315Y-93943345D01*
X158634356Y-93794124D01*
X158634358Y-93794119D01*
X158689505Y-93627697D01*
X158689506Y-93627690D01*
X158699999Y-93524986D01*
X158700000Y-93524973D01*
X158700000Y-93250000D01*
X157950000Y-93250000D01*
X157950000Y-94224999D01*
X157400019Y-94224999D01*
X157449999Y-94224998D01*
X157450000Y-94224998D01*
X157450000Y-92750000D01*
X157950000Y-92750000D01*
X158699999Y-92750000D01*
X158699999Y-92475028D01*
X158699998Y-92475013D01*
X158689505Y-92372302D01*
X158634358Y-92205880D01*
X158634356Y-92205875D01*
X158542315Y-92056654D01*
X158418345Y-91932684D01*
X158269124Y-91840643D01*
X158269119Y-91840641D01*
X158102697Y-91785494D01*
X158102690Y-91785493D01*
X157999986Y-91775000D01*
X157950000Y-91775000D01*
X157950000Y-92750000D01*
X157450000Y-92750000D01*
X157450000Y-91775000D01*
X157449999Y-91774999D01*
X157400029Y-91775000D01*
X157400011Y-91775001D01*
X157297302Y-91785494D01*
X157130880Y-91840641D01*
X157130875Y-91840643D01*
X156981654Y-91932684D01*
X156857683Y-92056655D01*
X156857679Y-92056660D01*
X156855826Y-92059665D01*
X156854018Y-92061290D01*
X156853202Y-92062323D01*
X156853025Y-92062183D01*
X156803874Y-92106385D01*
X156734911Y-92117601D01*
X156670831Y-92089752D01*
X156644753Y-92059653D01*
X156644459Y-92059176D01*
X156642712Y-92056344D01*
X156518656Y-91932288D01*
X156518655Y-91932287D01*
X156459402Y-91895739D01*
X156412678Y-91843791D01*
X156400500Y-91790201D01*
X156400500Y-91282014D01*
X165072500Y-91282014D01*
X165072500Y-91517985D01*
X165103299Y-91751914D01*
X165164370Y-91979837D01*
X165254660Y-92197819D01*
X165254665Y-92197828D01*
X165372644Y-92402171D01*
X165372645Y-92402172D01*
X165435221Y-92483723D01*
X166271458Y-91647487D01*
X166296478Y-91707890D01*
X166367612Y-91814351D01*
X166458149Y-91904888D01*
X166564610Y-91976022D01*
X166625011Y-92001041D01*
X165788775Y-92837277D01*
X165870327Y-92899854D01*
X165870328Y-92899855D01*
X166074671Y-93017834D01*
X166074680Y-93017839D01*
X166292663Y-93108129D01*
X166292661Y-93108129D01*
X166520585Y-93169200D01*
X166754514Y-93199999D01*
X166754529Y-93200000D01*
X166990471Y-93200000D01*
X166990485Y-93199999D01*
X167224414Y-93169200D01*
X167452337Y-93108129D01*
X167670319Y-93017839D01*
X167670328Y-93017834D01*
X167874681Y-92899850D01*
X167956223Y-92837279D01*
X167956223Y-92837276D01*
X167119987Y-92001041D01*
X167180390Y-91976022D01*
X167286851Y-91904888D01*
X167377388Y-91814351D01*
X167448522Y-91707890D01*
X167473541Y-91647488D01*
X168309776Y-92483723D01*
X168309779Y-92483723D01*
X168372350Y-92402181D01*
X168490334Y-92197828D01*
X168490339Y-92197819D01*
X168580629Y-91979837D01*
X168641700Y-91751914D01*
X168672499Y-91517985D01*
X168672500Y-91517971D01*
X168672500Y-91282028D01*
X168672499Y-91282014D01*
X168641700Y-91048085D01*
X168580629Y-90820162D01*
X168490339Y-90602180D01*
X168490334Y-90602171D01*
X168372355Y-90397828D01*
X168372354Y-90397827D01*
X168309777Y-90316275D01*
X167473541Y-91152511D01*
X167448522Y-91092110D01*
X167377388Y-90985649D01*
X167286851Y-90895112D01*
X167180390Y-90823978D01*
X167119988Y-90798958D01*
X167956223Y-89962721D01*
X167874672Y-89900145D01*
X167874671Y-89900144D01*
X167670328Y-89782165D01*
X167670319Y-89782160D01*
X167452336Y-89691870D01*
X167452338Y-89691870D01*
X167224414Y-89630799D01*
X166990485Y-89600000D01*
X166754514Y-89600000D01*
X166520585Y-89630799D01*
X166292662Y-89691870D01*
X166074680Y-89782160D01*
X166074671Y-89782165D01*
X165870328Y-89900144D01*
X165870318Y-89900150D01*
X165788775Y-89962720D01*
X165788775Y-89962721D01*
X166625012Y-90798958D01*
X166564610Y-90823978D01*
X166458149Y-90895112D01*
X166367612Y-90985649D01*
X166296478Y-91092110D01*
X166271458Y-91152511D01*
X165435221Y-90316275D01*
X165435220Y-90316275D01*
X165372650Y-90397818D01*
X165372644Y-90397828D01*
X165254665Y-90602171D01*
X165254660Y-90602180D01*
X165164370Y-90820162D01*
X165103299Y-91048085D01*
X165072500Y-91282014D01*
X156400500Y-91282014D01*
X156400500Y-90625316D01*
X156409939Y-90577864D01*
X156446082Y-90490606D01*
X156469737Y-90433497D01*
X156500500Y-90278842D01*
X156500500Y-90121158D01*
X156500500Y-90121155D01*
X156500499Y-90121153D01*
X156483336Y-90034865D01*
X156469738Y-89966508D01*
X156469737Y-89966507D01*
X156469737Y-89966503D01*
X156469735Y-89966498D01*
X156409397Y-89820827D01*
X156409390Y-89820814D01*
X156321789Y-89689711D01*
X156321786Y-89689707D01*
X156210292Y-89578213D01*
X156210288Y-89578210D01*
X156079185Y-89490609D01*
X156079172Y-89490602D01*
X155933501Y-89430264D01*
X155933489Y-89430261D01*
X155778845Y-89399500D01*
X155778842Y-89399500D01*
X155621158Y-89399500D01*
X155621155Y-89399500D01*
X155466510Y-89430261D01*
X155466498Y-89430264D01*
X155320827Y-89490602D01*
X155320814Y-89490609D01*
X155193391Y-89575751D01*
X155126713Y-89596629D01*
X155059333Y-89578144D01*
X155012643Y-89526165D01*
X155000500Y-89472649D01*
X155000500Y-88389059D01*
X155000501Y-88389046D01*
X155000501Y-88220945D01*
X155000501Y-88220943D01*
X154959577Y-88068215D01*
X154930639Y-88018095D01*
X154880520Y-87931284D01*
X154768716Y-87819480D01*
X154768715Y-87819479D01*
X154764385Y-87815149D01*
X154764374Y-87815139D01*
X153787590Y-86838355D01*
X153787588Y-86838352D01*
X153668717Y-86719481D01*
X153668716Y-86719480D01*
X153581904Y-86669360D01*
X153581904Y-86669359D01*
X153581900Y-86669358D01*
X153531785Y-86640423D01*
X153379057Y-86599499D01*
X153220943Y-86599499D01*
X153213347Y-86599499D01*
X153213331Y-86599500D01*
X147911670Y-86599500D01*
X147911654Y-86599499D01*
X147904058Y-86599499D01*
X147745943Y-86599499D01*
X147669579Y-86619961D01*
X147593214Y-86640423D01*
X147593209Y-86640426D01*
X147456290Y-86719475D01*
X147456282Y-86719481D01*
X146612582Y-87563181D01*
X146551259Y-87596666D01*
X146524901Y-87599500D01*
X145912498Y-87599500D01*
X145912480Y-87599501D01*
X145809703Y-87610000D01*
X145809700Y-87610001D01*
X145643168Y-87665185D01*
X145643163Y-87665187D01*
X145493842Y-87757289D01*
X145369789Y-87881342D01*
X145277687Y-88030663D01*
X145277686Y-88030666D01*
X145222501Y-88197203D01*
X145222501Y-88197204D01*
X145222500Y-88197204D01*
X145212000Y-88299983D01*
X145212000Y-89300001D01*
X145212001Y-89300019D01*
X145222500Y-89402796D01*
X145222501Y-89402799D01*
X145277685Y-89569331D01*
X145277687Y-89569336D01*
X145312499Y-89625776D01*
X145362079Y-89706158D01*
X145369789Y-89718657D01*
X145493844Y-89842712D01*
X145538022Y-89869961D01*
X145584747Y-89921909D01*
X145595970Y-89990871D01*
X145568127Y-90054953D01*
X145510058Y-90093810D01*
X145472926Y-90099500D01*
X144600098Y-90099500D01*
X144533059Y-90079815D01*
X144512417Y-90063181D01*
X144343519Y-89894283D01*
X144168033Y-89718798D01*
X144134549Y-89657476D01*
X144139533Y-89587785D01*
X144150177Y-89566021D01*
X144170545Y-89533000D01*
X144209814Y-89469334D01*
X144264999Y-89302797D01*
X144275500Y-89200009D01*
X144275499Y-88199992D01*
X144275374Y-88198772D01*
X144264999Y-88097203D01*
X144264998Y-88097200D01*
X144250333Y-88052944D01*
X144209814Y-87930666D01*
X144117712Y-87781344D01*
X143993656Y-87657288D01*
X143844334Y-87565186D01*
X143677797Y-87510001D01*
X143677795Y-87510000D01*
X143575010Y-87499500D01*
X142949998Y-87499500D01*
X142949980Y-87499501D01*
X142847203Y-87510000D01*
X142847200Y-87510001D01*
X142680668Y-87565185D01*
X142680663Y-87565187D01*
X142531345Y-87657287D01*
X142437327Y-87751305D01*
X142376003Y-87784789D01*
X142306312Y-87779805D01*
X142261965Y-87751304D01*
X142168345Y-87657684D01*
X142019124Y-87565643D01*
X142019119Y-87565641D01*
X141852697Y-87510494D01*
X141852690Y-87510493D01*
X141749986Y-87500000D01*
X141687500Y-87500000D01*
X141687500Y-89899999D01*
X141749972Y-89899999D01*
X141749986Y-89899998D01*
X141852697Y-89889505D01*
X142019119Y-89834358D01*
X142019124Y-89834356D01*
X142168342Y-89742317D01*
X142261964Y-89648695D01*
X142323287Y-89615210D01*
X142392979Y-89620194D01*
X142437327Y-89648695D01*
X142531344Y-89742712D01*
X142646310Y-89813623D01*
X142693035Y-89865571D01*
X142700988Y-89887064D01*
X142702923Y-89894285D01*
X142706222Y-89899999D01*
X142712142Y-89910254D01*
X142712144Y-89910256D01*
X142781977Y-90031212D01*
X142781981Y-90031217D01*
X142900849Y-90150085D01*
X142900854Y-90150089D01*
X143931284Y-91180520D01*
X143931286Y-91180521D01*
X143931290Y-91180524D01*
X144064764Y-91257584D01*
X144068216Y-91259577D01*
X144220943Y-91300501D01*
X144220945Y-91300501D01*
X144386654Y-91300501D01*
X144386670Y-91300500D01*
X145720234Y-91300500D01*
X145787273Y-91320185D01*
X145789125Y-91321398D01*
X145920814Y-91409390D01*
X145920827Y-91409397D01*
X145981731Y-91434624D01*
X146036135Y-91478465D01*
X146058200Y-91544759D01*
X146041012Y-91612305D01*
X145998254Y-91684605D01*
X145998254Y-91684606D01*
X145952402Y-91842426D01*
X145952401Y-91842432D01*
X145949500Y-91879298D01*
X145949500Y-91943786D01*
X145929815Y-92010825D01*
X145877011Y-92056580D01*
X145807853Y-92066524D01*
X145801309Y-92065403D01*
X145723873Y-92050000D01*
X145576128Y-92050000D01*
X145431240Y-92078820D01*
X145431228Y-92078823D01*
X145325974Y-92122420D01*
X145325974Y-92122421D01*
X145826777Y-92623223D01*
X146361350Y-93157796D01*
X146394835Y-93219119D01*
X146389851Y-93288811D01*
X146361350Y-93333158D01*
X146294508Y-93400000D01*
X146361350Y-93466842D01*
X146394835Y-93528165D01*
X146389851Y-93597857D01*
X146361350Y-93642204D01*
X146003554Y-94000000D01*
X146015679Y-94012125D01*
X146049164Y-94073448D01*
X146044180Y-94143140D01*
X146034731Y-94162925D01*
X146028784Y-94172982D01*
X145998254Y-94224605D01*
X145998254Y-94224606D01*
X145950634Y-94388515D01*
X145949143Y-94388082D01*
X145921217Y-94443553D01*
X145861047Y-94479067D01*
X145791227Y-94476413D01*
X145742976Y-94446530D01*
X145650000Y-94353554D01*
X145403554Y-94600000D01*
X145650000Y-94846446D01*
X145737819Y-94758627D01*
X145799142Y-94725142D01*
X145868834Y-94730126D01*
X145924767Y-94771998D01*
X145949184Y-94837462D01*
X145949500Y-94846308D01*
X145949500Y-94850701D01*
X145952401Y-94887567D01*
X145952402Y-94887573D01*
X145998254Y-95045393D01*
X145998254Y-95045394D01*
X145998255Y-95045396D01*
X145998256Y-95045398D01*
X146008715Y-95063084D01*
X146008717Y-95063086D01*
X146025899Y-95130810D01*
X146003738Y-95197072D01*
X145989666Y-95213887D01*
X145826778Y-95376777D01*
X145826777Y-95376777D01*
X145335371Y-95868181D01*
X145274048Y-95901666D01*
X145247690Y-95904500D01*
X144652308Y-95904500D01*
X144585269Y-95884815D01*
X144564627Y-95868181D01*
X143910334Y-95213888D01*
X143891889Y-95180109D01*
X144150000Y-95180109D01*
X144150000Y-95219891D01*
X144165224Y-95256645D01*
X144193355Y-95284776D01*
X144230109Y-95300000D01*
X144269891Y-95300000D01*
X144306645Y-95284776D01*
X144334776Y-95256645D01*
X144350000Y-95219891D01*
X144350000Y-95199999D01*
X144603554Y-95199999D01*
X144603554Y-95200001D01*
X144927929Y-95524376D01*
X144972069Y-95524376D01*
X145296446Y-95200000D01*
X145276555Y-95180109D01*
X145550000Y-95180109D01*
X145550000Y-95219891D01*
X145565224Y-95256645D01*
X145593355Y-95284776D01*
X145630109Y-95300000D01*
X145669891Y-95300000D01*
X145706645Y-95284776D01*
X145734776Y-95256645D01*
X145750000Y-95219891D01*
X145750000Y-95180109D01*
X145734776Y-95143355D01*
X145706645Y-95115224D01*
X145669891Y-95100000D01*
X145630109Y-95100000D01*
X145593355Y-95115224D01*
X145565224Y-95143355D01*
X145550000Y-95180109D01*
X145276555Y-95180109D01*
X144972068Y-94875622D01*
X144927930Y-94875622D01*
X144603554Y-95199999D01*
X144350000Y-95199999D01*
X144350000Y-95180109D01*
X144334776Y-95143355D01*
X144306645Y-95115224D01*
X144269891Y-95100000D01*
X144230109Y-95100000D01*
X144193355Y-95115224D01*
X144165224Y-95143355D01*
X144150000Y-95180109D01*
X143891889Y-95180109D01*
X143876849Y-95152565D01*
X143881833Y-95082873D01*
X143891283Y-95063086D01*
X143901744Y-95045398D01*
X143945643Y-94894297D01*
X143947597Y-94887573D01*
X143947598Y-94887567D01*
X143950499Y-94850701D01*
X143950500Y-94850694D01*
X143950500Y-94846308D01*
X143970185Y-94779269D01*
X144022989Y-94733514D01*
X144092147Y-94723570D01*
X144155703Y-94752595D01*
X144162181Y-94758627D01*
X144250000Y-94846446D01*
X144496446Y-94600000D01*
X144250000Y-94353554D01*
X144157023Y-94446531D01*
X144095700Y-94480015D01*
X144026008Y-94475031D01*
X143970075Y-94433159D01*
X143950448Y-94388200D01*
X143949366Y-94388515D01*
X143902005Y-94225500D01*
X143901744Y-94224602D01*
X143865268Y-94162925D01*
X143848086Y-94095204D01*
X143853917Y-94061963D01*
X143880123Y-93980188D01*
X143880080Y-93980109D01*
X144150000Y-93980109D01*
X144150000Y-94019891D01*
X144165224Y-94056645D01*
X144193355Y-94084776D01*
X144230109Y-94100000D01*
X144269891Y-94100000D01*
X144306645Y-94084776D01*
X144334776Y-94056645D01*
X144350000Y-94019891D01*
X144350000Y-93999999D01*
X144603554Y-93999999D01*
X144603554Y-94000001D01*
X144927929Y-94324376D01*
X144972069Y-94324376D01*
X145296446Y-94000000D01*
X145276555Y-93980109D01*
X145550000Y-93980109D01*
X145550000Y-94019891D01*
X145565224Y-94056645D01*
X145593355Y-94084776D01*
X145630109Y-94100000D01*
X145669891Y-94100000D01*
X145706645Y-94084776D01*
X145734776Y-94056645D01*
X145750000Y-94019891D01*
X145750000Y-93980109D01*
X145734776Y-93943355D01*
X145706645Y-93915224D01*
X145669891Y-93900000D01*
X145630109Y-93900000D01*
X145593355Y-93915224D01*
X145565224Y-93943355D01*
X145550000Y-93980109D01*
X145276555Y-93980109D01*
X144972068Y-93675622D01*
X144927930Y-93675622D01*
X144603554Y-93999999D01*
X144350000Y-93999999D01*
X144350000Y-93980109D01*
X144334776Y-93943355D01*
X144306645Y-93915224D01*
X144269891Y-93900000D01*
X144230109Y-93900000D01*
X144193355Y-93915224D01*
X144165224Y-93943355D01*
X144150000Y-93980109D01*
X143880080Y-93980109D01*
X143850835Y-93926551D01*
X143855819Y-93856859D01*
X143865266Y-93837078D01*
X143901744Y-93775398D01*
X143935647Y-93658704D01*
X143949366Y-93611485D01*
X143950860Y-93611919D01*
X143978762Y-93556467D01*
X144038925Y-93520939D01*
X144108744Y-93523577D01*
X144157023Y-93553469D01*
X144250000Y-93646446D01*
X144496446Y-93400000D01*
X145403554Y-93400000D01*
X145650000Y-93646446D01*
X145896446Y-93400000D01*
X145650000Y-93153554D01*
X145403554Y-93400000D01*
X144496446Y-93400000D01*
X144250000Y-93153554D01*
X144162181Y-93241373D01*
X144100858Y-93274858D01*
X144031166Y-93269874D01*
X143975233Y-93228002D01*
X143950816Y-93162538D01*
X143950500Y-93153692D01*
X143950500Y-93149313D01*
X143950499Y-93149298D01*
X143950197Y-93145465D01*
X143947598Y-93112431D01*
X143946348Y-93108129D01*
X143911293Y-92987468D01*
X143901744Y-92954602D01*
X143891282Y-92936912D01*
X143884279Y-92909314D01*
X143874330Y-92882637D01*
X143875798Y-92875887D01*
X143874099Y-92869191D01*
X143883129Y-92842186D01*
X143889182Y-92814364D01*
X143895059Y-92806513D01*
X143896258Y-92802928D01*
X143910333Y-92786110D01*
X143916334Y-92780109D01*
X144150000Y-92780109D01*
X144150000Y-92819891D01*
X144165224Y-92856645D01*
X144193355Y-92884776D01*
X144230109Y-92900000D01*
X144269891Y-92900000D01*
X144306645Y-92884776D01*
X144334776Y-92856645D01*
X144350000Y-92819891D01*
X144350000Y-92799999D01*
X144603554Y-92799999D01*
X144603554Y-92800001D01*
X144927929Y-93124376D01*
X144972069Y-93124376D01*
X145296446Y-92800000D01*
X145276555Y-92780109D01*
X145550000Y-92780109D01*
X145550000Y-92819891D01*
X145565224Y-92856645D01*
X145593355Y-92884776D01*
X145630109Y-92900000D01*
X145669891Y-92900000D01*
X145706645Y-92884776D01*
X145734776Y-92856645D01*
X145750000Y-92819891D01*
X145750000Y-92780109D01*
X145734776Y-92743355D01*
X145706645Y-92715224D01*
X145669891Y-92700000D01*
X145630109Y-92700000D01*
X145593355Y-92715224D01*
X145565224Y-92743355D01*
X145550000Y-92780109D01*
X145276555Y-92780109D01*
X144972068Y-92475622D01*
X144927930Y-92475622D01*
X144603554Y-92799999D01*
X144350000Y-92799999D01*
X144350000Y-92780109D01*
X144334776Y-92743355D01*
X144306645Y-92715224D01*
X144269891Y-92700000D01*
X144230109Y-92700000D01*
X144193355Y-92715224D01*
X144165224Y-92743355D01*
X144150000Y-92780109D01*
X143916334Y-92780109D01*
X144035489Y-92660956D01*
X144035491Y-92660954D01*
X144073223Y-92623223D01*
X144574024Y-92122421D01*
X144468767Y-92078822D01*
X144468759Y-92078820D01*
X144323872Y-92050000D01*
X144176126Y-92050000D01*
X144098691Y-92065403D01*
X144029100Y-92059176D01*
X143973922Y-92016313D01*
X143950678Y-91950423D01*
X143950500Y-91943786D01*
X143950500Y-91879313D01*
X143950499Y-91879298D01*
X143950182Y-91875275D01*
X143947598Y-91842431D01*
X143915598Y-91732289D01*
X143909207Y-91710289D01*
X143901744Y-91684602D01*
X143818081Y-91543135D01*
X143818079Y-91543133D01*
X143818076Y-91543129D01*
X143701870Y-91426923D01*
X143701862Y-91426917D01*
X143621420Y-91379344D01*
X143560398Y-91343256D01*
X143560397Y-91343255D01*
X143560396Y-91343255D01*
X143560393Y-91343254D01*
X143402573Y-91297402D01*
X143402567Y-91297401D01*
X143365701Y-91294500D01*
X143365694Y-91294500D01*
X141584306Y-91294500D01*
X141584298Y-91294500D01*
X141547432Y-91297401D01*
X141547426Y-91297402D01*
X141384774Y-91344658D01*
X141314905Y-91344459D01*
X141262498Y-91313263D01*
X141134574Y-91185339D01*
X141101089Y-91124016D01*
X141100638Y-91121849D01*
X141078269Y-91009397D01*
X141069737Y-90966503D01*
X141069735Y-90966498D01*
X141009397Y-90820827D01*
X141009390Y-90820814D01*
X140921789Y-90689711D01*
X140921786Y-90689707D01*
X140810292Y-90578213D01*
X140810288Y-90578210D01*
X140679185Y-90490609D01*
X140679172Y-90490602D01*
X140533501Y-90430264D01*
X140533489Y-90430261D01*
X140378845Y-90399500D01*
X140378842Y-90399500D01*
X140221158Y-90399500D01*
X140221155Y-90399500D01*
X140066510Y-90430261D01*
X140066498Y-90430264D01*
X139920827Y-90490602D01*
X139920814Y-90490609D01*
X139789711Y-90578210D01*
X139789707Y-90578213D01*
X139678213Y-90689707D01*
X139678210Y-90689711D01*
X139590609Y-90820814D01*
X139590602Y-90820827D01*
X139530264Y-90966498D01*
X139530261Y-90966510D01*
X139499500Y-91121153D01*
X139499500Y-91278846D01*
X139530261Y-91433489D01*
X139530264Y-91433501D01*
X139590602Y-91579172D01*
X139590609Y-91579185D01*
X139678210Y-91710288D01*
X139678213Y-91710292D01*
X139757680Y-91789759D01*
X139791165Y-91851082D01*
X139786181Y-91920774D01*
X139744309Y-91976707D01*
X139725899Y-91987191D01*
X139726191Y-91987736D01*
X139720814Y-91990609D01*
X139589711Y-92078210D01*
X139589707Y-92078213D01*
X139478213Y-92189707D01*
X139478210Y-92189711D01*
X139390609Y-92320814D01*
X139390602Y-92320827D01*
X139330264Y-92466498D01*
X139330261Y-92466510D01*
X139299500Y-92621153D01*
X139299500Y-92778846D01*
X139330261Y-92933489D01*
X139330264Y-92933501D01*
X139392937Y-93084807D01*
X139391231Y-93085513D01*
X139403704Y-93145465D01*
X139378693Y-93210704D01*
X139348996Y-93238597D01*
X139289711Y-93278210D01*
X139289707Y-93278213D01*
X139178213Y-93389707D01*
X139178210Y-93389711D01*
X139090609Y-93520814D01*
X139090602Y-93520827D01*
X139071763Y-93566311D01*
X139027922Y-93620715D01*
X138961628Y-93642780D01*
X138925108Y-93638634D01*
X138779057Y-93599499D01*
X138620943Y-93599499D01*
X138613347Y-93599499D01*
X138613331Y-93599500D01*
X138524500Y-93599500D01*
X138457461Y-93579815D01*
X138411706Y-93527011D01*
X138400500Y-93475500D01*
X138400500Y-93396559D01*
X138400501Y-93396546D01*
X138400501Y-93228445D01*
X138400501Y-93228443D01*
X138359577Y-93075715D01*
X138313717Y-92996284D01*
X138280520Y-92938784D01*
X138168716Y-92826980D01*
X138168715Y-92826979D01*
X138164385Y-92822649D01*
X138164374Y-92822639D01*
X137412590Y-92070855D01*
X137412588Y-92070852D01*
X137293717Y-91951981D01*
X137293712Y-91951977D01*
X137248444Y-91925842D01*
X137200229Y-91875275D01*
X137187005Y-91806668D01*
X137194263Y-91775120D01*
X137218597Y-91709879D01*
X137218597Y-91709877D01*
X137224999Y-91650344D01*
X137225000Y-91650327D01*
X137225000Y-91452500D01*
X135649500Y-91452500D01*
X135582461Y-91432815D01*
X135536706Y-91380011D01*
X135525500Y-91328500D01*
X135525500Y-91076500D01*
X135545185Y-91009461D01*
X135597989Y-90963706D01*
X135649500Y-90952500D01*
X135875000Y-90952500D01*
X136375000Y-90952500D01*
X137225000Y-90952500D01*
X137225000Y-90754672D01*
X137224999Y-90754655D01*
X137218598Y-90695127D01*
X137218596Y-90695120D01*
X137168354Y-90560413D01*
X137168350Y-90560406D01*
X137082190Y-90445312D01*
X137082187Y-90445309D01*
X136967093Y-90359149D01*
X136967086Y-90359145D01*
X136832379Y-90308903D01*
X136832372Y-90308901D01*
X136772844Y-90302500D01*
X136375000Y-90302500D01*
X136375000Y-90952500D01*
X135875000Y-90952500D01*
X135875000Y-90302500D01*
X135649500Y-90302500D01*
X135582461Y-90282815D01*
X135536706Y-90230011D01*
X135525500Y-90178500D01*
X135525500Y-90167103D01*
X135545185Y-90100064D01*
X135586744Y-90060156D01*
X135635248Y-90031696D01*
X135727671Y-89938094D01*
X135792800Y-89823806D01*
X135826219Y-89696579D01*
X135825664Y-89565037D01*
X135820010Y-89544231D01*
X135805438Y-89490602D01*
X135795352Y-89453483D01*
X135796769Y-89383629D01*
X135835727Y-89325629D01*
X135867561Y-89306408D01*
X135972355Y-89263001D01*
X135972368Y-89262994D01*
X136066666Y-89199986D01*
X140425001Y-89199986D01*
X140435494Y-89302697D01*
X140490641Y-89469119D01*
X140490643Y-89469124D01*
X140582684Y-89618345D01*
X140706654Y-89742315D01*
X140855875Y-89834356D01*
X140855880Y-89834358D01*
X141022302Y-89889505D01*
X141022309Y-89889506D01*
X141125019Y-89899999D01*
X141187499Y-89899998D01*
X141187500Y-89899998D01*
X141187500Y-88950000D01*
X140425001Y-88950000D01*
X140425001Y-89199986D01*
X136066666Y-89199986D01*
X136144335Y-89148089D01*
X136144339Y-89148086D01*
X136290586Y-89001839D01*
X136290589Y-89001835D01*
X136405492Y-88829871D01*
X136405499Y-88829858D01*
X136484648Y-88638776D01*
X136484649Y-88638774D01*
X136495843Y-88582500D01*
X135641988Y-88582500D01*
X135659205Y-88572560D01*
X135715060Y-88516705D01*
X135754556Y-88448296D01*
X135775000Y-88371996D01*
X135775000Y-88293004D01*
X135754556Y-88216704D01*
X135744919Y-88200013D01*
X140425000Y-88200013D01*
X140425000Y-88450000D01*
X141187500Y-88450000D01*
X141187500Y-87500000D01*
X141187499Y-87499999D01*
X141125028Y-87500000D01*
X141125011Y-87500001D01*
X141022302Y-87510494D01*
X140855880Y-87565641D01*
X140855875Y-87565643D01*
X140706654Y-87657684D01*
X140582684Y-87781654D01*
X140490643Y-87930875D01*
X140490641Y-87930880D01*
X140435494Y-88097302D01*
X140435493Y-88097309D01*
X140425000Y-88200013D01*
X135744919Y-88200013D01*
X135715060Y-88148295D01*
X135659205Y-88092440D01*
X135641988Y-88082500D01*
X136495842Y-88082500D01*
X136484649Y-88026225D01*
X136484648Y-88026223D01*
X136405499Y-87835141D01*
X136405494Y-87835131D01*
X136290589Y-87663164D01*
X136290586Y-87663160D01*
X136144339Y-87516913D01*
X136144335Y-87516910D01*
X135972368Y-87402005D01*
X135972358Y-87402000D01*
X135781274Y-87322850D01*
X135781266Y-87322848D01*
X135578420Y-87282500D01*
X135425000Y-87282500D01*
X135425000Y-88032500D01*
X134925000Y-88032500D01*
X134925000Y-87282500D01*
X134771579Y-87282500D01*
X134568733Y-87322848D01*
X134568725Y-87322850D01*
X134377641Y-87402000D01*
X134377631Y-87402005D01*
X134205664Y-87516910D01*
X134205660Y-87516913D01*
X134059413Y-87663160D01*
X134059410Y-87663164D01*
X133944505Y-87835131D01*
X133944500Y-87835141D01*
X133865351Y-88026223D01*
X133865350Y-88026225D01*
X133854157Y-88082500D01*
X134708012Y-88082500D01*
X134690795Y-88092440D01*
X134634940Y-88148295D01*
X134595444Y-88216704D01*
X134575000Y-88293004D01*
X134575000Y-88371996D01*
X134595444Y-88448296D01*
X134634940Y-88516705D01*
X134690795Y-88572560D01*
X134708012Y-88582500D01*
X133854157Y-88582500D01*
X133865350Y-88638774D01*
X133865351Y-88638776D01*
X133944500Y-88829858D01*
X133944505Y-88829868D01*
X134017498Y-88939109D01*
X134038376Y-89005787D01*
X134019891Y-89073167D01*
X133967913Y-89119857D01*
X133914396Y-89132000D01*
X132635604Y-89132000D01*
X132568565Y-89112315D01*
X132522810Y-89059511D01*
X132512866Y-88990353D01*
X132532502Y-88939109D01*
X132605494Y-88829868D01*
X132605499Y-88829858D01*
X132684648Y-88638776D01*
X132684649Y-88638774D01*
X132695843Y-88582500D01*
X131841988Y-88582500D01*
X131859205Y-88572560D01*
X131915060Y-88516705D01*
X131954556Y-88448296D01*
X131975000Y-88371996D01*
X131975000Y-88293004D01*
X131954556Y-88216704D01*
X131915060Y-88148295D01*
X131859205Y-88092440D01*
X131841988Y-88082500D01*
X132695843Y-88082500D01*
X132684649Y-88026225D01*
X132684648Y-88026223D01*
X132605499Y-87835141D01*
X132605494Y-87835131D01*
X132490589Y-87663164D01*
X132490586Y-87663160D01*
X132344339Y-87516913D01*
X132344335Y-87516910D01*
X132172368Y-87402005D01*
X132172358Y-87402000D01*
X131981274Y-87322850D01*
X131981266Y-87322848D01*
X131778420Y-87282500D01*
X131425000Y-87282500D01*
X131425000Y-88032500D01*
X130925000Y-88032500D01*
X130925000Y-87282500D01*
X130571579Y-87282500D01*
X130368733Y-87322848D01*
X130368725Y-87322850D01*
X130177641Y-87402000D01*
X130177626Y-87402008D01*
X130018390Y-87508406D01*
X129951713Y-87529284D01*
X129884333Y-87510799D01*
X129837643Y-87458820D01*
X129825500Y-87405304D01*
X129825500Y-87292619D01*
X129825499Y-87292616D01*
X129821309Y-87282500D01*
X129794976Y-87218926D01*
X129738574Y-87162524D01*
X129664883Y-87132000D01*
X129664882Y-87132000D01*
X129585118Y-87132000D01*
X129585116Y-87132000D01*
X129511425Y-87162524D01*
X129455024Y-87218925D01*
X129424500Y-87292616D01*
X128500500Y-87292616D01*
X128500500Y-86124500D01*
X128520185Y-86057461D01*
X128572989Y-86011706D01*
X128624500Y-86000500D01*
X171975500Y-86000500D01*
X172042539Y-86020185D01*
G37*
%TD.AperFunction*%
%TD*%
M02*
