%TF.GenerationSoftware,KiCad,Pcbnew,10.0.5*%
%TF.CreationDate,2026-09-30T23:19:41+05:30*%
%TF.ProjectId,Charger Board,43686172-6765-4722-9042-6f6172642e6b,rev?*%
%TF.SameCoordinates,Original*%
%TF.FileFunction,Legend,Top*%
%TF.FilePolarity,Positive*%
%FSLAX46Y46*%
G04 Gerber Fmt 4.6, Leading zero omitted, Abs format (unit mm)*
G04 Created by KiCad (PCBNEW 10.0.5) date 2026-09-30 23:19:41*
%MOMM*%
%LPD*%
G01*
G04 APERTURE LIST*
%ADD10C,0.150000*%
%ADD11C,0.200000*%
%ADD12C,0.120000*%
G04 APERTURE END LIST*
D10*
X136554819Y-87033333D02*
X137269104Y-87033333D01*
X137269104Y-87033333D02*
X137411961Y-87080952D01*
X137411961Y-87080952D02*
X137507200Y-87176190D01*
X137507200Y-87176190D02*
X137554819Y-87319047D01*
X137554819Y-87319047D02*
X137554819Y-87414285D01*
X137554819Y-86033333D02*
X137554819Y-86604761D01*
X137554819Y-86319047D02*
X136554819Y-86319047D01*
X136554819Y-86319047D02*
X136697676Y-86414285D01*
X136697676Y-86414285D02*
X136792914Y-86509523D01*
X136792914Y-86509523D02*
X136840533Y-86604761D01*
X144188095Y-96854819D02*
X144188095Y-97664342D01*
X144188095Y-97664342D02*
X144235714Y-97759580D01*
X144235714Y-97759580D02*
X144283333Y-97807200D01*
X144283333Y-97807200D02*
X144378571Y-97854819D01*
X144378571Y-97854819D02*
X144569047Y-97854819D01*
X144569047Y-97854819D02*
X144664285Y-97807200D01*
X144664285Y-97807200D02*
X144711904Y-97759580D01*
X144711904Y-97759580D02*
X144759523Y-97664342D01*
X144759523Y-97664342D02*
X144759523Y-96854819D01*
X145759523Y-97854819D02*
X145188095Y-97854819D01*
X145473809Y-97854819D02*
X145473809Y-96854819D01*
X145473809Y-96854819D02*
X145378571Y-96997676D01*
X145378571Y-96997676D02*
X145283333Y-97092914D01*
X145283333Y-97092914D02*
X145188095Y-97140533D01*
X151583333Y-87604819D02*
X151250000Y-87128628D01*
X151011905Y-87604819D02*
X151011905Y-86604819D01*
X151011905Y-86604819D02*
X151392857Y-86604819D01*
X151392857Y-86604819D02*
X151488095Y-86652438D01*
X151488095Y-86652438D02*
X151535714Y-86700057D01*
X151535714Y-86700057D02*
X151583333Y-86795295D01*
X151583333Y-86795295D02*
X151583333Y-86938152D01*
X151583333Y-86938152D02*
X151535714Y-87033390D01*
X151535714Y-87033390D02*
X151488095Y-87081009D01*
X151488095Y-87081009D02*
X151392857Y-87128628D01*
X151392857Y-87128628D02*
X151011905Y-87128628D01*
X151916667Y-86604819D02*
X152535714Y-86604819D01*
X152535714Y-86604819D02*
X152202381Y-86985771D01*
X152202381Y-86985771D02*
X152345238Y-86985771D01*
X152345238Y-86985771D02*
X152440476Y-87033390D01*
X152440476Y-87033390D02*
X152488095Y-87081009D01*
X152488095Y-87081009D02*
X152535714Y-87176247D01*
X152535714Y-87176247D02*
X152535714Y-87414342D01*
X152535714Y-87414342D02*
X152488095Y-87509580D01*
X152488095Y-87509580D02*
X152440476Y-87557200D01*
X152440476Y-87557200D02*
X152345238Y-87604819D01*
X152345238Y-87604819D02*
X152059524Y-87604819D01*
X152059524Y-87604819D02*
X151964286Y-87557200D01*
X151964286Y-87557200D02*
X151916667Y-87509580D01*
X146783333Y-87254819D02*
X146450000Y-86778628D01*
X146211905Y-87254819D02*
X146211905Y-86254819D01*
X146211905Y-86254819D02*
X146592857Y-86254819D01*
X146592857Y-86254819D02*
X146688095Y-86302438D01*
X146688095Y-86302438D02*
X146735714Y-86350057D01*
X146735714Y-86350057D02*
X146783333Y-86445295D01*
X146783333Y-86445295D02*
X146783333Y-86588152D01*
X146783333Y-86588152D02*
X146735714Y-86683390D01*
X146735714Y-86683390D02*
X146688095Y-86731009D01*
X146688095Y-86731009D02*
X146592857Y-86778628D01*
X146592857Y-86778628D02*
X146211905Y-86778628D01*
X147164286Y-86350057D02*
X147211905Y-86302438D01*
X147211905Y-86302438D02*
X147307143Y-86254819D01*
X147307143Y-86254819D02*
X147545238Y-86254819D01*
X147545238Y-86254819D02*
X147640476Y-86302438D01*
X147640476Y-86302438D02*
X147688095Y-86350057D01*
X147688095Y-86350057D02*
X147735714Y-86445295D01*
X147735714Y-86445295D02*
X147735714Y-86540533D01*
X147735714Y-86540533D02*
X147688095Y-86683390D01*
X147688095Y-86683390D02*
X147116667Y-87254819D01*
X147116667Y-87254819D02*
X147735714Y-87254819D01*
X142033333Y-87354819D02*
X141700000Y-86878628D01*
X141461905Y-87354819D02*
X141461905Y-86354819D01*
X141461905Y-86354819D02*
X141842857Y-86354819D01*
X141842857Y-86354819D02*
X141938095Y-86402438D01*
X141938095Y-86402438D02*
X141985714Y-86450057D01*
X141985714Y-86450057D02*
X142033333Y-86545295D01*
X142033333Y-86545295D02*
X142033333Y-86688152D01*
X142033333Y-86688152D02*
X141985714Y-86783390D01*
X141985714Y-86783390D02*
X141938095Y-86831009D01*
X141938095Y-86831009D02*
X141842857Y-86878628D01*
X141842857Y-86878628D02*
X141461905Y-86878628D01*
X142985714Y-87354819D02*
X142414286Y-87354819D01*
X142700000Y-87354819D02*
X142700000Y-86354819D01*
X142700000Y-86354819D02*
X142604762Y-86497676D01*
X142604762Y-86497676D02*
X142509524Y-86592914D01*
X142509524Y-86592914D02*
X142414286Y-86640533D01*
X155811905Y-95804819D02*
X155811905Y-94804819D01*
X155811905Y-94804819D02*
X156050000Y-94804819D01*
X156050000Y-94804819D02*
X156192857Y-94852438D01*
X156192857Y-94852438D02*
X156288095Y-94947676D01*
X156288095Y-94947676D02*
X156335714Y-95042914D01*
X156335714Y-95042914D02*
X156383333Y-95233390D01*
X156383333Y-95233390D02*
X156383333Y-95376247D01*
X156383333Y-95376247D02*
X156335714Y-95566723D01*
X156335714Y-95566723D02*
X156288095Y-95661961D01*
X156288095Y-95661961D02*
X156192857Y-95757200D01*
X156192857Y-95757200D02*
X156050000Y-95804819D01*
X156050000Y-95804819D02*
X155811905Y-95804819D01*
X156764286Y-94900057D02*
X156811905Y-94852438D01*
X156811905Y-94852438D02*
X156907143Y-94804819D01*
X156907143Y-94804819D02*
X157145238Y-94804819D01*
X157145238Y-94804819D02*
X157240476Y-94852438D01*
X157240476Y-94852438D02*
X157288095Y-94900057D01*
X157288095Y-94900057D02*
X157335714Y-94995295D01*
X157335714Y-94995295D02*
X157335714Y-95090533D01*
X157335714Y-95090533D02*
X157288095Y-95233390D01*
X157288095Y-95233390D02*
X156716667Y-95804819D01*
X156716667Y-95804819D02*
X157335714Y-95804819D01*
X151011905Y-95904819D02*
X151011905Y-94904819D01*
X151011905Y-94904819D02*
X151250000Y-94904819D01*
X151250000Y-94904819D02*
X151392857Y-94952438D01*
X151392857Y-94952438D02*
X151488095Y-95047676D01*
X151488095Y-95047676D02*
X151535714Y-95142914D01*
X151535714Y-95142914D02*
X151583333Y-95333390D01*
X151583333Y-95333390D02*
X151583333Y-95476247D01*
X151583333Y-95476247D02*
X151535714Y-95666723D01*
X151535714Y-95666723D02*
X151488095Y-95761961D01*
X151488095Y-95761961D02*
X151392857Y-95857200D01*
X151392857Y-95857200D02*
X151250000Y-95904819D01*
X151250000Y-95904819D02*
X151011905Y-95904819D01*
X152535714Y-95904819D02*
X151964286Y-95904819D01*
X152250000Y-95904819D02*
X152250000Y-94904819D01*
X152250000Y-94904819D02*
X152154762Y-95047676D01*
X152154762Y-95047676D02*
X152059524Y-95142914D01*
X152059524Y-95142914D02*
X151964286Y-95190533D01*
X156583333Y-91679580D02*
X156535714Y-91727200D01*
X156535714Y-91727200D02*
X156392857Y-91774819D01*
X156392857Y-91774819D02*
X156297619Y-91774819D01*
X156297619Y-91774819D02*
X156154762Y-91727200D01*
X156154762Y-91727200D02*
X156059524Y-91631961D01*
X156059524Y-91631961D02*
X156011905Y-91536723D01*
X156011905Y-91536723D02*
X155964286Y-91346247D01*
X155964286Y-91346247D02*
X155964286Y-91203390D01*
X155964286Y-91203390D02*
X156011905Y-91012914D01*
X156011905Y-91012914D02*
X156059524Y-90917676D01*
X156059524Y-90917676D02*
X156154762Y-90822438D01*
X156154762Y-90822438D02*
X156297619Y-90774819D01*
X156297619Y-90774819D02*
X156392857Y-90774819D01*
X156392857Y-90774819D02*
X156535714Y-90822438D01*
X156535714Y-90822438D02*
X156583333Y-90870057D01*
X156964286Y-90870057D02*
X157011905Y-90822438D01*
X157011905Y-90822438D02*
X157107143Y-90774819D01*
X157107143Y-90774819D02*
X157345238Y-90774819D01*
X157345238Y-90774819D02*
X157440476Y-90822438D01*
X157440476Y-90822438D02*
X157488095Y-90870057D01*
X157488095Y-90870057D02*
X157535714Y-90965295D01*
X157535714Y-90965295D02*
X157535714Y-91060533D01*
X157535714Y-91060533D02*
X157488095Y-91203390D01*
X157488095Y-91203390D02*
X156916667Y-91774819D01*
X156916667Y-91774819D02*
X157535714Y-91774819D01*
X151483333Y-91479580D02*
X151435714Y-91527200D01*
X151435714Y-91527200D02*
X151292857Y-91574819D01*
X151292857Y-91574819D02*
X151197619Y-91574819D01*
X151197619Y-91574819D02*
X151054762Y-91527200D01*
X151054762Y-91527200D02*
X150959524Y-91431961D01*
X150959524Y-91431961D02*
X150911905Y-91336723D01*
X150911905Y-91336723D02*
X150864286Y-91146247D01*
X150864286Y-91146247D02*
X150864286Y-91003390D01*
X150864286Y-91003390D02*
X150911905Y-90812914D01*
X150911905Y-90812914D02*
X150959524Y-90717676D01*
X150959524Y-90717676D02*
X151054762Y-90622438D01*
X151054762Y-90622438D02*
X151197619Y-90574819D01*
X151197619Y-90574819D02*
X151292857Y-90574819D01*
X151292857Y-90574819D02*
X151435714Y-90622438D01*
X151435714Y-90622438D02*
X151483333Y-90670057D01*
X152435714Y-91574819D02*
X151864286Y-91574819D01*
X152150000Y-91574819D02*
X152150000Y-90574819D01*
X152150000Y-90574819D02*
X152054762Y-90717676D01*
X152054762Y-90717676D02*
X151959524Y-90812914D01*
X151959524Y-90812914D02*
X151864286Y-90860533D01*
X160483509Y-94685714D02*
X160531128Y-94542857D01*
X160531128Y-94542857D02*
X160578747Y-94495238D01*
X160578747Y-94495238D02*
X160673985Y-94447619D01*
X160673985Y-94447619D02*
X160816842Y-94447619D01*
X160816842Y-94447619D02*
X160912080Y-94495238D01*
X160912080Y-94495238D02*
X160959700Y-94542857D01*
X160959700Y-94542857D02*
X161007319Y-94638095D01*
X161007319Y-94638095D02*
X161007319Y-95019047D01*
X161007319Y-95019047D02*
X160007319Y-95019047D01*
X160007319Y-95019047D02*
X160007319Y-94685714D01*
X160007319Y-94685714D02*
X160054938Y-94590476D01*
X160054938Y-94590476D02*
X160102557Y-94542857D01*
X160102557Y-94542857D02*
X160197795Y-94495238D01*
X160197795Y-94495238D02*
X160293033Y-94495238D01*
X160293033Y-94495238D02*
X160388271Y-94542857D01*
X160388271Y-94542857D02*
X160435890Y-94590476D01*
X160435890Y-94590476D02*
X160483509Y-94685714D01*
X160483509Y-94685714D02*
X160483509Y-95019047D01*
X160007319Y-94161904D02*
X160007319Y-93590476D01*
X161007319Y-93876190D02*
X160007319Y-93876190D01*
X161007319Y-92733333D02*
X161007319Y-93304761D01*
X161007319Y-93019047D02*
X160007319Y-93019047D01*
X160007319Y-93019047D02*
X160150176Y-93114285D01*
X160150176Y-93114285D02*
X160245414Y-93209523D01*
X160245414Y-93209523D02*
X160293033Y-93304761D01*
%TO.C,J1*%
D11*
X129625000Y-99952500D02*
X129625000Y-87952500D01*
X137485000Y-91202500D02*
G75*
G02*
X137285000Y-91202500I-100000J0D01*
G01*
X137285000Y-91202500D02*
G75*
G02*
X137485000Y-91202500I100000J0D01*
G01*
%TO.C,U1*%
D12*
X147010000Y-96560000D02*
X142890000Y-96560000D01*
X147010000Y-96465000D02*
X147010000Y-96560000D01*
X147010000Y-91440000D02*
X147010000Y-91535000D01*
X142890000Y-96560000D02*
X142890000Y-96465000D01*
X142890000Y-91535000D02*
X142890000Y-91440000D01*
X142890000Y-91440000D02*
X147010000Y-91440000D01*
X147550000Y-96470000D02*
X147790000Y-96800000D01*
X147310000Y-96800000D01*
X147550000Y-96470000D01*
G36*
X147790000Y-96800000D02*
G01*
X147310000Y-96800000D01*
X147550000Y-96470000D01*
X147790000Y-96800000D01*
G37*
%TO.C,R3*%
X151522936Y-88065000D02*
X151977064Y-88065000D01*
X151522936Y-89535000D02*
X151977064Y-89535000D01*
%TO.C,R2*%
X147364564Y-89535000D02*
X146910436Y-89535000D01*
X147364564Y-88065000D02*
X146910436Y-88065000D01*
%TO.C,R1*%
X142577064Y-89435000D02*
X142122936Y-89435000D01*
X142577064Y-87965000D02*
X142122936Y-87965000D01*
%TO.C,D2*%
X154865000Y-96040000D02*
X154865000Y-97960000D01*
X154865000Y-97960000D02*
X157550000Y-97960000D01*
X157550000Y-96040000D02*
X154865000Y-96040000D01*
%TO.C,D1*%
X150065000Y-96140000D02*
X150065000Y-98060000D01*
X150065000Y-98060000D02*
X152750000Y-98060000D01*
X152750000Y-96140000D02*
X150065000Y-96140000D01*
%TO.C,C2*%
X156488748Y-92265000D02*
X157011252Y-92265000D01*
X156488748Y-93735000D02*
X157011252Y-93735000D01*
%TO.C,C1*%
X151388748Y-92065000D02*
X151911252Y-92065000D01*
X151388748Y-93535000D02*
X151911252Y-93535000D01*
%TO.C,BT1*%
X161552500Y-99020000D02*
X161552500Y-88780000D01*
X164572500Y-99020000D02*
X164572500Y-88780000D01*
X169472500Y-99020000D02*
X169472500Y-88780000D01*
X170972500Y-99020000D02*
X170972500Y-88780000D01*
X171592500Y-99020000D02*
X161552500Y-99020000D01*
X171592500Y-96700000D02*
X171592500Y-99020000D01*
X161552500Y-88780000D02*
X171592500Y-88780000D01*
X171592500Y-88780000D02*
X171592500Y-96100000D01*
X171592500Y-96400000D02*
X172202500Y-95960000D01*
X172202500Y-96840000D01*
X171592500Y-96400000D01*
G36*
X172202500Y-96840000D02*
G01*
X171592500Y-96400000D01*
X172202500Y-95960000D01*
X172202500Y-96840000D01*
G37*
%TD*%
M02*
