M48
; DRILL file KiCad 10.0.5 date 2026-09-30T23:19:46
; FORMAT={-:-/ absolute / metric / decimal}
; #@! TF.CreationDate,2026-09-30T23:19:46+05:30
; #@! TF.GenerationSoftware,Kicad,Pcbnew,10.0.5
; #@! TF.FileFunction,MixedPlating,1,2
FMAT,2
METRIC
; #@! TA.AperFunction,Plated,PTH,ComponentDrill
T1C0.200
; #@! TA.AperFunction,Plated,PTH,ViaDrill
T2C0.300
; #@! TA.AperFunction,Plated,PTH,ComponentDrill
T3C0.600
; #@! TA.AperFunction,Plated,PTH,ComponentDrill
T4C1.300
%
G90
G05
T1
X144.25Y-92.8
X144.25Y-94.0
X144.25Y-95.2
X145.65Y-92.8
X145.65Y-94.0
X145.65Y-95.2
T2
X138.4Y-95.5
X138.5Y-92.3
X139.8Y-93.9
X140.1Y-92.7
X140.3Y-91.2
X143.4Y-98.1
X146.3Y-90.7
X148.9Y-91.0
X148.9Y-92.0
X151.3Y-98.3
X151.6Y-91.0
X152.6Y-90.3
X152.6Y-94.6
X153.8Y-90.1
X155.7Y-90.2
X157.3Y-94.9
X160.0Y-93.2
T4
X166.873Y-91.4
X166.873Y-96.4
T3
G00X131.675Y-88.332
M15
G01X130.675Y-88.332
M16
G05
G00X131.675Y-99.572
M15
G01X130.675Y-99.572
M16
G05
G00X135.475Y-88.332
M15
G01X134.875Y-88.332
M16
G05
G00X135.475Y-99.572
M15
G01X134.875Y-99.572
M16
G05
M30
